<svg xmlns="http://www.w3.org/2000/svg" xmlns:xlink="http://www.w3.org/1999/xlink" viewBox="0 0 340 384.5">
  <defs>
    <linearGradient id="linear-gradient" x1="132.28" y1="-1.53" x2="187" y2="162.63" gradientUnits="userSpaceOnUse">
      <stop offset="0" stop-color="#cea89f"/>
      <stop offset="0.24" stop-color="#b5897f"/>
      <stop offset="0.81" stop-color="#9c726a"/>
      <stop offset="1" stop-color="#a27a73"/>
    </linearGradient>
    <radialGradient id="radial-gradient" cx="112" cy="71.75" r="240.17" gradientUnits="userSpaceOnUse">
      <stop offset="0" stop-color="#e6cebf"/>
      <stop offset="0.49" stop-color="#e5c9b8"/>
      <stop offset="0.85" stop-color="#dcbdaa"/>
      <stop offset="1" stop-color="#f0cfbb"/>
    </radialGradient>
    <linearGradient id="linear-gradient-2" x1="179.65" y1="235.11" x2="148.56" y2="16.27" gradientUnits="userSpaceOnUse">
      <stop offset="0" stop-color="#cea89f"/>
      <stop offset="0" stop-color="#9c726a"/>
      <stop offset="0.72" stop-color="#b5897f"/>
      <stop offset="0.94" stop-color="#a27a73"/>
    </linearGradient>
    <clipPath id="clip-path">
      <path d="M229.5,133.7a39,39,0,0,0-29.38,12.8,21,21,0,0,0,0,28,40.11,40.11,0,0,0,58.76,0,21,21,0,0,0,0-28A39,39,0,0,0,229.5,133.7Z" fill="none"/>
    </clipPath>
    <radialGradient id="radial-gradient-2" cx="234.6" cy="201.12" fx="202.9055235475758" r="89.21" gradientTransform="translate(14.23 12.17) scale(0.92 0.92)" gradientUnits="userSpaceOnUse">
      <stop offset="0.39" stop-color="#6e8895"/>
      <stop offset="0.69" stop-color="#326372"/>
      <stop offset="0.73" stop-color="#305f6e"/>
      <stop offset="0.77" stop-color="#2c5460"/>
      <stop offset="0.82" stop-color="#24424b"/>
      <stop offset="0.84" stop-color="#1e343a"/>
    </radialGradient>
    <linearGradient id="linear-gradient-3" x1="206.68" y1="118.89" x2="215.37" y2="132.21" gradientTransform="translate(-9.59 38.44) rotate(-3.34)" gradientUnits="userSpaceOnUse">
      <stop offset="0" stop-color="#fff"/>
      <stop offset="1" stop-color="#fff" stop-opacity="0"/>
    </linearGradient>
    <clipPath id="clip-path-2">
      <path d="M110.47,133.7a39,39,0,0,0-29.38,12.8,21,21,0,0,0,0,28,40.11,40.11,0,0,0,58.76,0,21,21,0,0,0,0-28A39,39,0,0,0,110.47,133.7Z" fill="none"/>
    </clipPath>
    <radialGradient id="radial-gradient-3" cx="105.31" cy="201.12" fx="73.61609337994976" r="89.21" xlink:href="#radial-gradient-2"/>
    <linearGradient id="linear-gradient-4" x1="88.06" y1="111.96" x2="96.75" y2="125.29" xlink:href="#linear-gradient-3"/>
    <radialGradient id="radial-gradient-4" cx="185.66" cy="299.63" r="127.66" gradientUnits="userSpaceOnUse">
      <stop offset="0.35" stop-color="#b37f7a"/>
      <stop offset="0.48" stop-color="#ad636f"/>
      <stop offset="0.62" stop-color="#943a56"/>
      <stop offset="0.79" stop-color="#5b2932"/>
    </radialGradient>
    <radialGradient id="New_Gradient_Swatch" data-name="New Gradient Swatch" cx="146.36" cy="214.5" r="62.03" gradientUnits="userSpaceOnUse">
      <stop offset="0" stop-color="#c6a38e"/>
      <stop offset="0.29" stop-color="#c9a692"/>
      <stop offset="0.58" stop-color="#d0b19e"/>
      <stop offset="0.87" stop-color="#ddc2b2"/>
      <stop offset="1" stop-color="#e5ccbe"/>
    </radialGradient>
  </defs>
  <title>boy-05</title>
  <g style="isolation: isolate">
    <g id="boy">
      <g id="shirt-2" data-name="shirt">
        <ellipse cx="170" cy="344.35" rx="99.9" ry="40.15" fill="#fbf9f4"/>
      </g>
      <g id="head-2" data-name="head">
        <path id="hair" d="M304.55,169.72c9.78-54.3,28.45-120-46.2-148.63C203.24-.08,129,6.75,83.66,20.08S42,72.73,42,72.73s-9.27,2.5-15,6c-6.16,3.78-7.84,11.46-5.32,23.94s11.41,57.78,13.91,66.18a7.56,7.56,0,0,0,7.49,5.71H289.9C296,174.58,303.8,173.88,304.55,169.72Z" fill="url(#linear-gradient)"/>
        <path id="neck" d="M170,339c6.37,0,18.8-4.21,23.09-13.33,4.63-9.85-.44-14-2-46.67-1.63-34.58,2.8-36.89-1.54-46.67s-13-10.67-19.57-10.67-15.24.89-19.57,10.67,0.09,12.09-1.54,46.67c-1.54,32.67-6.61,36.82-2,46.67C151.2,334.75,163.63,339,170,339Z" fill="#dbbcaa"/>
        <path id="face" d="M170,63.16C62.86,63.16,27.69,94,40.22,174.52S55.32,273.3,170,273.3,287.22,255,299.75,174.52,277.11,63.16,170,63.16" stroke="#e5ccbe" stroke-miterlimit="10" fill="url(#radial-gradient)"/>
        <g id="freckles-3" data-name="freckles" opacity="0.4">
          <polygon points="77.06 215.24 81.98 208.28 85.54 216.02 77.06 215.24" fill="#a47d76" opacity="0.6"/>
          <polygon points="209.71 221.95 203.5 227.79 201.55 219.49 209.71 221.95" fill="#a47d76" opacity="0.2"/>
          <polygon points="245.26 233.06 237.81 237.2 237.95 228.68 245.26 233.06" fill="#a47d76" opacity="0.2"/>
          <polygon points="99.33 230.77 105.33 224.72 107.57 232.94 99.33 230.77" fill="#a47d76" opacity="0.4"/>
          <polygon points="119.44 207.43 111.62 210.79 112.61 202.33 119.44 207.43" fill="#a47d76"/>
          <polygon points="99.72 194.38 106.3 188.96 107.7 197.37 99.72 194.38" fill="#a47d76"/>
          <polygon points="140.4 194.89 131.88 194.8 136.22 187.47 140.4 194.89" fill="#a47d76" opacity="0.6"/>
          <polygon points="258.4 189.81 251.34 194.58 250.74 186.08 258.4 189.81" fill="#a47d76" opacity="0.2"/>
          <polygon points="237.54 225.4 238.99 217 245.53 222.46 237.54 225.4" fill="#a47d76" opacity="0.4"/>
          <polygon points="62.36 162.37 70.39 165.21 63.92 170.75 62.36 162.37" fill="#a47d76" opacity="0.6"/>
          <polygon points="109.76 221.7 115.18 215.12 118.16 223.11 109.76 221.7" fill="#a47d76" opacity="0.2"/>
          <polygon points="252.82 210.34 245.72 215.05 245.19 206.54 252.82 210.34" fill="#a47d76"/>
          <polygon points="216.52 247.47 208.3 249.71 210.47 241.47 216.52 247.47" fill="#a47d76" opacity="0.2"/>
          <polygon points="145.85 180.89 152.54 175.62 153.76 184.05 145.85 180.89" fill="#a47d76" opacity="0.6"/>
          <polygon points="97.96 214.87 106.29 213.1 103.66 221.2 97.96 214.87" fill="#a47d76"/>
          <polygon points="212.69 212.46 206.04 217.78 204.76 209.36 212.69 212.46" fill="#a47d76" opacity="0.2"/>
          <polygon points="260.58 233.81 252.75 237.17 253.75 228.71 260.58 233.81" fill="#a47d76" opacity="0.2"/>
          <polygon points="188.68 203.91 196.26 200.03 195.83 208.54 188.68 203.91" fill="#a47d76"/>
          <polygon points="53.24 186.85 60.96 183.26 60.21 191.75 53.24 186.85" fill="#a47d76" opacity="0.6"/>
          <polygon points="245.4 201.85 238.44 206.76 237.67 198.28 245.4 201.85" fill="#a47d76" opacity="0.6"/>
          <polygon points="284.19 182.88 277 187.47 276.63 178.95 284.19 182.88" fill="#a47d76" opacity="0.2"/>
          <polygon points="223.3 211.93 230.93 208.15 230.39 216.65 223.3 211.93" fill="#a47d76" opacity="0.6"/>
          <polygon points="86.05 204.13 93.17 199.45 93.67 207.95 86.05 204.13" fill="#a47d76"/>
          <polygon points="88.09 194.28 80.85 198.77 80.58 190.25 88.09 194.28" fill="#a47d76" opacity="0.2"/>
          <polygon points="89.42 223.65 94.22 216.61 97.91 224.29 89.42 223.65" fill="#a47d76" opacity="0.6"/>
          <polygon points="119.57 192.48 124.05 199.73 115.53 199.98 119.57 192.48" fill="#a47d76" opacity="0.4"/>
          <polygon points="276.34 213.61 272.37 206.07 280.88 206.4 276.34 213.61" fill="#a47d76" opacity="0.8"/>
          <polygon points="86.44 229.47 94.03 233.34 86.89 237.99 86.44 229.47" fill="#a47d76" opacity="0.4"/>
          <polygon points="103.85 249.96 97.98 243.78 106.27 241.78 103.85 249.96" fill="#a47d76" opacity="0.8"/>
          <polygon points="64.47 216.3 62.26 208.07 70.49 210.27 64.47 216.3" fill="#a47d76" opacity="0.4"/>
          <polygon points="266.83 212.61 258.35 213.47 261.85 205.7 266.83 212.61" fill="#a47d76" opacity="0.4"/>
          <polygon points="266.31 191.97 266.69 200.48 259.12 196.56 266.31 191.97" fill="#a47d76" opacity="0.8"/>
          <polygon points="234.07 198.81 230.72 190.98 239.18 191.99 234.07 198.81" fill="#a47d76"/>
          <polygon points="229.48 223.38 229.21 231.9 221.97 227.4 229.48 223.38" fill="#a47d76"/>
          <polygon points="195.76 187.88 192.01 180.22 200.51 180.8 195.76 187.88" fill="#a47d76" opacity="0.6"/>
          <polygon points="221.58 197.24 224.04 189.09 229.88 195.3 221.58 197.24" fill="#a47d76" opacity="0.4"/>
          <polygon points="99.77 206.35 106.51 201.14 107.65 209.59 99.77 206.35" fill="#a47d76"/>
          <polygon points="124.53 221.28 122.42 213.02 130.63 215.33 124.53 221.28" fill="#a47d76" opacity="0.4"/>
          <polygon points="77.94 187.5 74.23 179.83 82.73 180.46 77.94 187.5" fill="#a47d76" opacity="0.4"/>
          <polygon points="238.97 245.77 237.35 254.14 230.92 248.55 238.97 245.77" fill="#a47d76" opacity="0.4"/>
          <polygon points="220.37 209.84 215.34 202.97 223.81 202.05 220.37 209.84" fill="#a47d76"/>
          <polygon points="256.66 219.12 265.12 220.18 259.97 226.97 256.66 219.12" fill="#a47d76" opacity="0.4"/>
          <polygon points="212.68 201.01 208.15 193.79 216.67 193.48 212.68 201.01" fill="#a47d76" opacity="0.6"/>
          <polygon points="223.54 217.71 215.62 220.83 216.88 212.4 223.54 217.71" fill="#a47d76" opacity="0.8"/>
          <polygon points="288.91 198.19 280.4 198.71 284.22 191.08 288.91 198.19" fill="#a47d76" opacity="0.6"/>
          <polygon points="70.4 224.67 78.48 221.96 76.79 230.31 70.4 224.67" fill="#a47d76" opacity="0.6"/>
          <polygon points="123.64 232.15 118.14 238.66 115.25 230.65 123.64 232.15" fill="#a47d76" opacity="0.6"/>
          <polygon points="66.38 196.9 73.34 191.99 74.11 200.47 66.38 196.9" fill="#a47d76" opacity="0.2"/>
        </g>
        <path id="bang" d="M37.56,154.71c-3-38.48,22.72-23.36,24.41-68.2,0,0,40.16-33.42,108.13-13.75,0,0,40.37-14.95,80-.46,28.18,10.29,39.1,25.14,43.26,31.89,0-16.12-25-43.87-78.06-54.43C152.64,37.28,53.24,18.75,62,86.5,62,86.5,16,83.71,37.56,154.71Z" fill="url(#linear-gradient-2)"/>
      </g>
      <g id="eyes-eyebrows-2" data-name="eyes-eyebrows">
        <g id="right">
          <g id="sclera">
            <path d="M229.5,187.83a39.33,39.33,0,0,1-29.75-13,21.57,21.57,0,0,1,0-28.69,40.61,40.61,0,0,1,59.51,0,21.57,21.57,0,0,1,0,28.69A39.33,39.33,0,0,1,229.5,187.83Z" fill="#f9f7f4"/>
            <path d="M229.5,133.7a39,39,0,0,1,29.38,12.8,21,21,0,0,1,0,28,40.11,40.11,0,0,1-58.76,0,21,21,0,0,1,0-28,39,39,0,0,1,29.38-12.8m0-1a39.83,39.83,0,0,0-30.13,13.14,22.07,22.07,0,0,0,0,29.35,41.11,41.11,0,0,0,60.26,0,22.07,22.07,0,0,0,0-29.35A39.83,39.83,0,0,0,229.5,132.7h0Z" fill="#ead6cc"/>
          </g>
          <g id="iris">
            <g clip-path="url(#clip-path)">
              <circle id="iris-color-gradient" cx="229.5" cy="155.33" r="25.83" stroke="#326372" stroke-miterlimit="10" fill="url(#radial-gradient-2)"/>
              <g id="triangles">
                <g opacity="0.2">
                  <g>
                    <path d="M245.63,159.31s0.55,0.38,1.35,1a23.89,23.89,0,0,1,2.73,2.65,24.54,24.54,0,0,1,2.39,3.13c0.6,0.92,1,1.58,1,1.58l0.87-1.81a27.73,27.73,0,0,0,1.39-4.2,16.74,16.74,0,0,0,.46-2.32,16.07,16.07,0,0,0,.24-2l0.1-2s-0.64.41-1.61,0.94a26.49,26.49,0,0,1-3.57,1.66,28.14,28.14,0,0,1-3.64,1.08C246.29,159.23,245.63,159.31,245.63,159.31Z" fill="#7ec1ba"/>
                    <path d="M241.93,166.34s0.3,0.59.71,1.55a24.3,24.3,0,0,1,1.19,3.62,24.93,24.93,0,0,1,.67,3.88c0.11,1.09.13,1.85,0.13,1.85l1.61-1.2a27.85,27.85,0,0,0,3.18-3.06,18.18,18.18,0,0,0,1.48-1.83l0.65-.87,0.51-.83,0.75-1.25a3.66,3.66,0,0,0,.26-0.49s-0.73.08-1.84,0.1a28.11,28.11,0,0,1-3.93-.19,28.67,28.67,0,0,1-3.73-.74C242.56,166.58,241.93,166.34,241.93,166.34Z" fill="#7ec1ba"/>
                    <path d="M235.39,170.87s0,0.67-.09,1.7a23.85,23.85,0,0,1-.63,3.75,24.38,24.38,0,0,1-1.22,3.75c-0.42,1-.75,1.69-0.75,1.69l2-.31a28.26,28.26,0,0,0,4.25-1.24,17.42,17.42,0,0,0,2.17-.94,15.26,15.26,0,0,0,1.82-1l1.24-.76a3.31,3.31,0,0,0,.46-0.31l-0.46-.19c-0.3-.13-0.72-0.33-1.22-0.58a27.5,27.5,0,0,1-3.4-2,28.39,28.39,0,0,1-3-2.39C235.83,171.37,235.39,170.87,235.39,170.87Z" fill="#7ec1ba"/>
                    <path d="M227.49,171.83s-0.31.58-.87,1.45a23.21,23.21,0,0,1-2.3,3,27.25,27.25,0,0,1-4.27,3.9l0.52,0.19a14.25,14.25,0,0,0,1.38.46l2,0.51c0.74,0.15,1.54.25,2.33,0.38s1.6,0.12,2.35.17a15.3,15.3,0,0,0,2.05,0l1.45-.08,0.55-.07a17.23,17.23,0,0,1-1.13-1.46A31.31,31.31,0,0,1,229.5,177a29.19,29.19,0,0,1-1.51-3.52A16.31,16.31,0,0,1,227.49,171.83Z" fill="#7ec1ba"/>
                    <path d="M220.05,169s-0.55.37-1.44,0.87a23.75,23.75,0,0,1-3.45,1.62,27.73,27.73,0,0,1-5.59,1.47l0.37,0.41a14.52,14.52,0,0,0,1,1l1.53,1.38c0.59,0.47,1.24.94,1.88,1.42a27,27,0,0,0,3.84,2.19,12.7,12.7,0,0,0,1.33.59l0.52,0.19s-0.17-.73-0.33-1.79a31.18,31.18,0,0,1-.28-3.95,26.15,26.15,0,0,1,.3-3.81c0.08-.5.15-0.91,0.21-1.2Z" fill="#7ec1ba"/>
                    <path d="M214.77,163.05s-0.65.07-1.68,0.11a23.36,23.36,0,0,1-3.81-.17,27.27,27.27,0,0,1-5.63-1.3l0.14,0.54a13.86,13.86,0,0,0,.4,1.4l0.71,1.94c0.3,0.69.66,1.41,1,2.14a26.71,26.71,0,0,0,2.38,3.72,13.72,13.72,0,0,0,.9,1.14l0.37,0.41s0.19-.72.54-1.74a31.37,31.37,0,0,1,1.58-3.62,26.64,26.64,0,0,1,2-3.24C214.31,163.57,214.77,163.05,214.77,163.05Z" fill="#7ec1ba"/>
                    <path d="M212.86,155.33s-0.61-.24-1.52-0.69a25.44,25.44,0,0,1-3.3-1.92,31,31,0,0,1-3.09-2.47c-0.78-.74-1.29-1.29-1.29-1.29l-0.14.54a11.84,11.84,0,0,0-.27,1.43c-0.08.6-.23,1.29-0.27,2l-0.12,2.35,0.12,2.35c0,0.75.19,1.44,0.27,2a11.84,11.84,0,0,0,.27,1.43l0.14,0.54s0.5-.55,1.29-1.29a31,31,0,0,1,3.09-2.47,25.44,25.44,0,0,1,3.3-1.92C212.25,155.57,212.86,155.33,212.86,155.33Z" fill="#7ec1ba"/>
                    <path d="M214.77,147.61s-0.46-.51-1-1.32a26.64,26.64,0,0,1-2-3.24,31.37,31.37,0,0,1-1.58-3.62c-0.35-1-.54-1.74-0.54-1.74l-0.37.41a13.72,13.72,0,0,0-.9,1.14,26.71,26.71,0,0,0-2.38,3.72c-0.35.72-.71,1.45-1,2.14L204.2,147a13.86,13.86,0,0,0-.4,1.4l-0.14.54a27.27,27.27,0,0,1,5.63-1.3,23.36,23.36,0,0,1,3.81-.17C214.12,147.53,214.77,147.61,214.77,147.61Z" fill="#7ec1ba"/>
                    <path d="M220.05,141.64l-0.1-.46c-0.06-.29-0.13-0.69-0.21-1.2a26.15,26.15,0,0,1-.3-3.81,31.18,31.18,0,0,1,.28-3.95c0.17-1.06.33-1.79,0.33-1.79l-0.52.19a12.7,12.7,0,0,0-1.33.59,27,27,0,0,0-3.84,2.19c-0.64.48-1.29,1-1.88,1.42L211,136.22a14.52,14.52,0,0,0-1,1l-0.37.41a27.73,27.73,0,0,1,5.59,1.47,23.75,23.75,0,0,1,3.45,1.62C219.51,141.28,220.05,141.64,220.05,141.64Z" fill="#7ec1ba"/>
                    <path d="M227.49,138.83a16.31,16.31,0,0,1,.5-1.62,29.19,29.19,0,0,1,1.51-3.52,31.31,31.31,0,0,1,2.08-3.34,17.23,17.23,0,0,1,1.13-1.46l-0.55-.07-1.45-.08a15.3,15.3,0,0,0-2.05,0c-0.75.05-1.56,0-2.35,0.17s-1.59.23-2.33,0.38l-2,.51a14.25,14.25,0,0,0-1.38.46l-0.52.19a27.25,27.25,0,0,1,4.27,3.9,23.21,23.21,0,0,1,2.3,3C227.17,138.25,227.49,138.83,227.49,138.83Z" fill="#7ec1ba"/>
                    <path d="M235.39,139.79s0.45-.5,1.2-1.23a28.39,28.39,0,0,1,3-2.39,27.5,27.5,0,0,1,3.4-2c0.49-.25.92-0.44,1.22-0.58l0.46-.19a3.31,3.31,0,0,0-.46-0.31l-1.24-.76a15.26,15.26,0,0,0-1.82-1,17.42,17.42,0,0,0-2.17-.94,28.26,28.26,0,0,0-4.25-1.24l-2-.31s0.33,0.68.75,1.69a24.38,24.38,0,0,1,1.22,3.75,23.85,23.85,0,0,1,.63,3.75C235.38,139.13,235.39,139.79,235.39,139.79Z" fill="#7ec1ba"/>
                    <path d="M241.93,144.32s0.63-.24,1.63-0.53a28.67,28.67,0,0,1,3.73-.74,28.11,28.11,0,0,1,3.93-.19c1.12,0,1.84.1,1.84,0.1a3.66,3.66,0,0,0-.26-0.49l-0.75-1.25-0.51-.83-0.65-.87a18.18,18.18,0,0,0-1.48-1.83,27.85,27.85,0,0,0-3.18-3.06l-1.61-1.2s0,0.76-.13,1.85a24.93,24.93,0,0,1-.67,3.88,24.3,24.3,0,0,1-1.19,3.62C242.24,143.72,241.93,144.32,241.93,144.32Z" fill="#7ec1ba"/>
                    <path d="M245.63,151.35s0.67,0.08,1.69.29a28.14,28.14,0,0,1,3.64,1.08,26.49,26.49,0,0,1,3.57,1.66c1,0.53,1.61.94,1.61,0.94l-0.1-2a16.07,16.07,0,0,0-.24-2,16.74,16.74,0,0,0-.46-2.32,27.73,27.73,0,0,0-1.39-4.2L253.07,143s-0.37.66-1,1.58a24.54,24.54,0,0,1-2.39,3.13,23.89,23.89,0,0,1-2.73,2.65C246.17,151,245.63,151.35,245.63,151.35Z" fill="#7ec1ba"/>
                  </g>
                </g>
              </g>
              <circle id="pupil" cx="229.5" cy="155.33" r="16.57" fill="#1e2223" opacity="0.3" style="mix-blend-mode: multiply"/>
              <path id="reflect-light" d="M192.69,164.55c5.23-9.87,18.2-21.91,33.86-22.82" fill="none" stroke-linecap="round" stroke-miterlimit="10" stroke-width="10" opacity="0.7" stroke="url(#linear-gradient-3)"/>
            </g>
          </g>
          <g id="eyebrow">
            <path d="M191.69,131.34s12.18-8.93,37.8-8.93,37.8,8.93,37.8,8.93" fill="none" stroke="#916964" stroke-linecap="round" stroke-miterlimit="10" stroke-width="8"/>
          </g>
        </g>
        <g id="left">
          <g id="sclera-2" data-name="sclera">
            <path d="M110.47,187.83a39.33,39.33,0,0,1-29.75-13,21.57,21.57,0,0,1,0-28.69,39.33,39.33,0,0,1,29.75-13,39.33,39.33,0,0,1,29.76,13,21.57,21.57,0,0,1,0,28.69A39.33,39.33,0,0,1,110.47,187.83Z" fill="#f9f7f4"/>
            <path d="M110.47,133.7a39,39,0,0,1,29.38,12.8,21,21,0,0,1,0,28,40.11,40.11,0,0,1-58.76,0,21,21,0,0,1,0-28,39,39,0,0,1,29.38-12.8m0-1a39.83,39.83,0,0,0-30.13,13.14,22.07,22.07,0,0,0,0,29.35,39.83,39.83,0,0,0,30.13,13.14,39.83,39.83,0,0,0,30.13-13.14,22.07,22.07,0,0,0,0-29.35,39.83,39.83,0,0,0-30.13-13.14h0Z" fill="#ead6cc"/>
          </g>
          <g id="iris-2" data-name="iris">
            <g clip-path="url(#clip-path-2)">
              <circle id="iris-color-gradient-2" data-name="iris-color-gradient" cx="110.47" cy="155.33" r="25.83" stroke="#326372" stroke-miterlimit="10" fill="url(#radial-gradient-3)"/>
              <g id="triangles-2" data-name="triangles">
                <g opacity="0.2">
                  <g>
                    <path d="M126.6,159.31s0.55,0.38,1.35,1a23.89,23.89,0,0,1,2.73,2.65,24.54,24.54,0,0,1,2.39,3.13c0.6,0.92,1,1.58,1,1.58l0.87-1.81a27.73,27.73,0,0,0,1.39-4.2,16.74,16.74,0,0,0,.46-2.32,16.07,16.07,0,0,0,.24-2l0.1-2s-0.64.41-1.61,0.94a26.49,26.49,0,0,1-3.57,1.66,28.14,28.14,0,0,1-3.64,1.08C127.27,159.23,126.6,159.31,126.6,159.31Z" fill="#7ec1ba"/>
                    <path d="M122.9,166.34s0.3,0.59.71,1.55a24.31,24.31,0,0,1,1.19,3.62,24.92,24.92,0,0,1,.67,3.88c0.11,1.09.13,1.85,0.13,1.85l1.61-1.2a27.85,27.85,0,0,0,3.18-3.06,18.18,18.18,0,0,0,1.48-1.83l0.65-.87,0.51-.83,0.75-1.25a3.66,3.66,0,0,0,.26-0.49s-0.73.08-1.84,0.1a28.11,28.11,0,0,1-3.93-.19,28.67,28.67,0,0,1-3.73-.74C123.54,166.58,122.9,166.34,122.9,166.34Z" fill="#7ec1ba"/>
                    <path d="M116.36,170.87s0,0.67-.09,1.7a23.85,23.85,0,0,1-.63,3.75,24.38,24.38,0,0,1-1.22,3.75c-0.42,1-.75,1.69-0.75,1.69l2-.31a28.26,28.26,0,0,0,4.25-1.24,17.42,17.42,0,0,0,2.17-.94,15.26,15.26,0,0,0,1.82-1l1.24-.76a3.31,3.31,0,0,0,.46-0.31l-0.46-.19c-0.3-.13-0.72-0.33-1.22-0.58a27.5,27.5,0,0,1-3.4-2,28.39,28.39,0,0,1-3-2.39C116.81,171.37,116.36,170.87,116.36,170.87Z" fill="#7ec1ba"/>
                    <path d="M108.46,171.83s-0.31.58-.87,1.45a23.21,23.21,0,0,1-2.3,3,27.25,27.25,0,0,1-4.27,3.9l0.52,0.19a14.25,14.25,0,0,0,1.38.46l2,0.51c0.74,0.15,1.54.25,2.33,0.38s1.6,0.12,2.35.17a15.3,15.3,0,0,0,2.05,0l1.45-.08,0.55-.07a17.24,17.24,0,0,1-1.13-1.46,31.31,31.31,0,0,1-2.08-3.34,29.19,29.19,0,0,1-1.51-3.52A16.31,16.31,0,0,1,108.46,171.83Z" fill="#7ec1ba"/>
                    <path d="M101,169s-0.55.37-1.44,0.87a23.75,23.75,0,0,1-3.45,1.62A27.73,27.73,0,0,1,90.55,173l0.37,0.41a14.52,14.52,0,0,0,1,1l1.53,1.38c0.59,0.47,1.24.94,1.88,1.42a27,27,0,0,0,3.84,2.19,12.7,12.7,0,0,0,1.33.59l0.52,0.19s-0.17-.73-0.33-1.79a31.18,31.18,0,0,1-.28-3.95,26.15,26.15,0,0,1,.3-3.81c0.08-.5.15-0.91,0.21-1.2Z" fill="#7ec1ba"/>
                    <path d="M95.74,163.05s-0.65.07-1.68,0.11a23.36,23.36,0,0,1-3.81-.17,27.27,27.27,0,0,1-5.63-1.3l0.14,0.54a13.87,13.87,0,0,0,.4,1.4l0.71,1.94c0.3,0.69.66,1.41,1,2.14a26.71,26.71,0,0,0,2.38,3.72,13.72,13.72,0,0,0,.9,1.14L90.55,173s0.19-.72.54-1.74a31.37,31.37,0,0,1,1.58-3.62,26.64,26.64,0,0,1,2-3.24C95.28,163.57,95.74,163.05,95.74,163.05Z" fill="#7ec1ba"/>
                    <path d="M93.83,155.33s-0.61-.24-1.52-0.69a25.44,25.44,0,0,1-3.3-1.92,31,31,0,0,1-3.09-2.47c-0.78-.74-1.29-1.29-1.29-1.29l-0.14.54a11.83,11.83,0,0,0-.27,1.43c-0.08.6-.23,1.29-0.27,2l-0.12,2.35,0.12,2.35c0,0.75.19,1.44,0.27,2a11.83,11.83,0,0,0,.27,1.43l0.14,0.54s0.5-.55,1.29-1.29A31,31,0,0,1,89,157.94a25.44,25.44,0,0,1,3.3-1.92C93.22,155.57,93.83,155.33,93.83,155.33Z" fill="#7ec1ba"/>
                    <path d="M95.74,147.61s-0.46-.51-1-1.32a26.64,26.64,0,0,1-2-3.24,31.37,31.37,0,0,1-1.58-3.62c-0.35-1-.54-1.74-0.54-1.74l-0.37.41a13.72,13.72,0,0,0-.9,1.14A26.71,26.71,0,0,0,86.89,143c-0.35.72-.71,1.45-1,2.14L85.17,147a13.87,13.87,0,0,0-.4,1.4l-0.14.54a27.27,27.27,0,0,1,5.63-1.3,23.36,23.36,0,0,1,3.81-.17C95.09,147.53,95.74,147.61,95.74,147.61Z" fill="#7ec1ba"/>
                    <path d="M101,141.64l-0.1-.46c-0.06-.29-0.13-0.69-0.21-1.2a26.15,26.15,0,0,1-.3-3.81,31.18,31.18,0,0,1,.28-3.95c0.17-1.06.33-1.79,0.33-1.79l-0.52.19a12.7,12.7,0,0,0-1.33.59,27,27,0,0,0-3.84,2.19c-0.64.48-1.29,1-1.88,1.42l-1.53,1.38a14.52,14.52,0,0,0-1,1l-0.37.41a27.73,27.73,0,0,1,5.59,1.47,23.75,23.75,0,0,1,3.45,1.62C100.48,141.28,101,141.64,101,141.64Z" fill="#7ec1ba"/>
                    <path d="M108.46,138.83a16.31,16.31,0,0,1,.5-1.62,29.19,29.19,0,0,1,1.51-3.52,31.31,31.31,0,0,1,2.08-3.34,17.24,17.24,0,0,1,1.13-1.46l-0.55-.07-1.45-.08a15.3,15.3,0,0,0-2.05,0c-0.75.05-1.56,0-2.35,0.17s-1.59.23-2.33,0.38l-2,.51a14.25,14.25,0,0,0-1.38.46l-0.52.19a27.25,27.25,0,0,1,4.27,3.9,23.21,23.21,0,0,1,2.3,3C108.15,138.25,108.46,138.83,108.46,138.83Z" fill="#7ec1ba"/>
                    <path d="M116.36,139.79s0.45-.5,1.2-1.23a28.39,28.39,0,0,1,3-2.39,27.5,27.5,0,0,1,3.4-2c0.49-.25.92-0.44,1.22-0.58l0.46-.19a3.31,3.31,0,0,0-.46-0.31l-1.24-.76a15.26,15.26,0,0,0-1.82-1,17.42,17.42,0,0,0-2.17-.94,28.26,28.26,0,0,0-4.25-1.24l-2-.31s0.33,0.68.75,1.69a24.38,24.38,0,0,1,1.22,3.75,23.85,23.85,0,0,1,.63,3.75C116.36,139.13,116.36,139.79,116.36,139.79Z" fill="#7ec1ba"/>
                    <path d="M122.9,144.32s0.63-.24,1.63-0.53a28.67,28.67,0,0,1,3.73-.74,28.11,28.11,0,0,1,3.93-.19c1.12,0,1.84.1,1.84,0.1a3.66,3.66,0,0,0-.26-0.49L133,141.22l-0.51-.83-0.65-.87a18.18,18.18,0,0,0-1.48-1.83,27.85,27.85,0,0,0-3.18-3.06l-1.61-1.2s0,0.76-.13,1.85a24.92,24.92,0,0,1-.67,3.88,24.31,24.31,0,0,1-1.19,3.62C123.21,143.72,122.9,144.32,122.9,144.32Z" fill="#7ec1ba"/>
                    <path d="M126.6,151.35s0.67,0.08,1.69.29a28.14,28.14,0,0,1,3.64,1.08,26.49,26.49,0,0,1,3.57,1.66c1,0.53,1.61.94,1.61,0.94l-0.1-2a16.07,16.07,0,0,0-.24-2,16.74,16.74,0,0,0-.46-2.32,27.73,27.73,0,0,0-1.39-4.2L134,143s-0.37.66-1,1.58a24.54,24.54,0,0,1-2.39,3.13,23.89,23.89,0,0,1-2.73,2.65C127.14,151,126.6,151.35,126.6,151.35Z" fill="#7ec1ba"/>
                  </g>
                </g>
              </g>
              <circle id="pupil-2" data-name="pupil" cx="110.47" cy="155.33" r="16.57" fill="#1e2223" opacity="0.3" style="mix-blend-mode: multiply"/>
              <path id="reflect-light-2" data-name="reflect-light" d="M73.87,164.55c5.23-9.87,18.2-21.91,33.86-22.82" fill="none" stroke-linecap="round" stroke-miterlimit="10" stroke-width="10" opacity="0.7" stroke="url(#linear-gradient-4)"/>
            </g>
          </g>
          <g id="eyebrow-2" data-name="eyebrow">
            <path d="M72.67,131.34s12.18-8.93,37.8-8.93,37.8,8.93,37.8,8.93" fill="none" stroke="#916964" stroke-linecap="round" stroke-miterlimit="10" stroke-width="8"/>
          </g>
        </g>
      </g>
      <path id="mouth" d="M199.23,231.62a30.15,30.15,0,0,1-60-.89A112.51,112.51,0,0,0,170.85,235,115.19,115.19,0,0,0,199.23,231.62Z" fill="url(#radial-gradient-4)"/>
      <g id="nose">
        <path d="M176.9,172c3.1-5.79,12.93-2.73,11.87,4.8-2.2,15.56-8.24,29.52-17.71,38.09-8.5,7.7-20.51,6.71-26.28-.31-5.64-6.84-3.77-15.13,4.31-19.42S168.66,187.42,176.9,172Z" fill="url(#New_Gradient_Swatch)"/>
      </g>
      <g id="glasses-2" data-name="glasses">
        <line x1="247.89" y1="174.52" x2="308.75" y2="174.52" fill="none" stroke="#5d5a62" stroke-linecap="round" stroke-miterlimit="10" stroke-width="6"/>
        <line x1="31.52" y1="174.52" x2="93.16" y2="174.52" fill="none" stroke="#5d5a62" stroke-linecap="round" stroke-miterlimit="10" stroke-width="6"/>
        <line x1="142.32" y1="174.52" x2="197.64" y2="174.52" fill="none" stroke="#5d5a62" stroke-miterlimit="10" stroke-width="6"/>
        <circle cx="117.37" cy="180.56" r="25.85" fill="#fff" fill-opacity="0.5" stroke="#5d5a62" stroke-miterlimit="10" stroke-width="6"/>
        <circle cx="222.9" cy="180.56" r="25.85" fill="#fff" fill-opacity="0.5" stroke="#5d5a62" stroke-miterlimit="10" stroke-width="6"/>
      </g>
    </g>
  </g>
</svg>
