<svg xmlns="http://www.w3.org/2000/svg" xmlns:xlink="http://www.w3.org/1999/xlink" viewBox="0 0 293.47 376.94">
  <defs>
    <linearGradient id="linear-gradient" x1="169.28" y1="4.72" x2="224.01" y2="168.88" gradientUnits="userSpaceOnUse">
      <stop offset="0" stop-color="#cea89f"/>
      <stop offset="0.24" stop-color="#b5897f"/>
      <stop offset="0.81" stop-color="#9c726a"/>
      <stop offset="1" stop-color="#a27a73"/>
    </linearGradient>
    <radialGradient id="radial-gradient" cx="149" cy="78" r="240.17" gradientUnits="userSpaceOnUse">
      <stop offset="0" stop-color="#e6cebf"/>
      <stop offset="0.49" stop-color="#e5c9b8"/>
      <stop offset="0.85" stop-color="#dcbdaa"/>
      <stop offset="1" stop-color="#f0cfbb"/>
    </radialGradient>
    <linearGradient id="linear-gradient-2" x1="216.65" y1="241.36" x2="185.56" y2="22.52" gradientUnits="userSpaceOnUse">
      <stop offset="0" stop-color="#cea89f"/>
      <stop offset="0" stop-color="#9c726a"/>
      <stop offset="0.72" stop-color="#b5897f"/>
      <stop offset="0.94" stop-color="#a27a73"/>
    </linearGradient>
    <clipPath id="clip-path" transform="translate(-57.55 -13.81)">
      <path d="M266.5,139.95a39,39,0,0,0-29.38,12.8,21,21,0,0,0,0,28,40.11,40.11,0,0,0,58.76,0,21,21,0,0,0,0-28A39,39,0,0,0,266.5,139.95Z" fill="none"/>
    </clipPath>
    <radialGradient id="radial-gradient-2" cx="272.2" cy="207.37" fx="240.51139185418293" r="89.21" gradientTransform="translate(-40.94 -1.14) scale(0.92 0.92)" gradientUnits="userSpaceOnUse">
      <stop offset="0.39" stop-color="#6e8895"/>
      <stop offset="0.69" stop-color="#326372"/>
      <stop offset="0.73" stop-color="#305f6e"/>
      <stop offset="0.77" stop-color="#2c5460"/>
      <stop offset="0.82" stop-color="#24424b"/>
      <stop offset="0.84" stop-color="#1e343a"/>
    </radialGradient>
    <linearGradient id="linear-gradient-3" x1="243.67" y1="125.55" x2="252.36" y2="138.87" gradientTransform="translate(-9.9 40.2) rotate(-3.34)" gradientUnits="userSpaceOnUse">
      <stop offset="0" stop-color="#fff"/>
      <stop offset="1" stop-color="#fff" stop-opacity="0"/>
    </linearGradient>
    <clipPath id="clip-path-2" transform="translate(-57.55 -13.81)">
      <path d="M147.47,139.95a39,39,0,0,0-29.38,12.8,21,21,0,0,0,0,28,40.11,40.11,0,0,0,58.76,0,21,21,0,0,0,0-28A39,39,0,0,0,147.47,139.95Z" fill="none"/>
    </clipPath>
    <radialGradient id="radial-gradient-3" cx="142.91" cy="207.37" fx="111.22196168655778" r="89.21" xlink:href="#radial-gradient-2"/>
    <linearGradient id="linear-gradient-4" x1="125.05" y1="118.62" x2="133.74" y2="131.95" xlink:href="#linear-gradient-3"/>
    <radialGradient id="radial-gradient-4" cx="222.66" cy="305.88" r="127.66" gradientUnits="userSpaceOnUse">
      <stop offset="0.35" stop-color="#b37f7a"/>
      <stop offset="0.48" stop-color="#ad636f"/>
      <stop offset="0.62" stop-color="#943a56"/>
      <stop offset="0.79" stop-color="#5b2932"/>
    </radialGradient>
    <radialGradient id="New_Gradient_Swatch" data-name="New Gradient Swatch" cx="183.36" cy="220.75" r="62.03" gradientUnits="userSpaceOnUse">
      <stop offset="0" stop-color="#c6a38e"/>
      <stop offset="0.29" stop-color="#c9a692"/>
      <stop offset="0.58" stop-color="#d0b19e"/>
      <stop offset="0.87" stop-color="#ddc2b2"/>
      <stop offset="1" stop-color="#e5ccbe"/>
    </radialGradient>
  </defs>
  <title>boy-04</title>
  <g style="isolation: isolate">
    <g id="boy">
      <g id="shirt">
        <ellipse cx="149.45" cy="336.8" rx="99.9" ry="40.15" fill="#fbf9f4"/>
      </g>
      <g id="head">
        <path id="hair" d="M341.55,176c9.78-54.3,28.45-120-46.2-148.63C240.24,6.17,166,13,120.67,26.33S79,79,79,79s-9.27,2.5-15,6c-6.16,3.78-7.84,11.46-5.32,23.94s11.41,57.78,13.91,66.18a7.56,7.56,0,0,0,7.49,5.71H326.9C333,180.83,340.8,180.13,341.55,176Z" transform="translate(-57.55 -13.81)" fill="url(#linear-gradient)"/>
        <path id="neck" d="M207,345.21c6.37,0,18.8-4.21,23.09-13.33,4.63-9.85-.44-14-2-46.67-1.63-34.58,2.8-36.89-1.54-46.67s-13-10.67-19.57-10.67-15.24.89-19.57,10.67,0.09,12.09-1.54,46.67c-1.54,32.67-6.61,36.82-2,46.67C188.2,341,200.63,345.21,207,345.21Z" transform="translate(-57.55 -13.81)" fill="#dbbcaa"/>
        <path id="face" d="M207,69.41c-107.13,0-142.29,30.85-129.77,111.36S92.32,279.55,207,279.55s117.23-18.27,129.75-98.78S314.11,69.41,207,69.41" transform="translate(-57.55 -13.81)" stroke="#e5ccbe" stroke-miterlimit="10" fill="url(#radial-gradient)"/>
        <g id="freckles" opacity="0.4">
          <polygon points="56.51 207.68 61.43 200.72 64.99 208.46 56.51 207.68" fill="#a47d76" opacity="0.6"/>
          <polygon points="189.16 214.4 182.95 220.23 181 211.94 189.16 214.4" fill="#a47d76" opacity="0.2"/>
          <polygon points="224.71 225.5 217.26 229.64 217.4 221.12 224.71 225.5" fill="#a47d76" opacity="0.2"/>
          <polygon points="78.78 223.21 84.78 217.16 87.02 225.38 78.78 223.21" fill="#a47d76" opacity="0.4"/>
          <polygon points="98.89 199.87 91.07 203.24 92.06 194.78 98.89 199.87" fill="#a47d76"/>
          <polygon points="79.17 186.82 85.75 181.41 87.15 189.81 79.17 186.82" fill="#a47d76"/>
          <polygon points="119.85 187.34 111.33 187.24 115.67 179.91 119.85 187.34" fill="#a47d76" opacity="0.6"/>
          <polygon points="237.85 182.26 230.78 187.03 230.19 178.53 237.85 182.26" fill="#a47d76" opacity="0.2"/>
          <polygon points="216.99 217.85 218.44 209.45 224.99 214.91 216.99 217.85" fill="#a47d76" opacity="0.4"/>
          <polygon points="41.81 154.81 49.84 157.65 43.37 163.19 41.81 154.81" fill="#a47d76" opacity="0.6"/>
          <polygon points="89.21 214.14 94.63 207.57 97.61 215.55 89.21 214.14" fill="#a47d76" opacity="0.2"/>
          <polygon points="232.27 202.78 225.16 207.49 224.64 198.99 232.27 202.78" fill="#a47d76"/>
          <polygon points="195.97 239.91 187.75 242.15 189.92 233.91 195.97 239.91" fill="#a47d76" opacity="0.2"/>
          <polygon points="125.3 173.33 131.99 168.06 133.21 176.5 125.3 173.33" fill="#a47d76" opacity="0.6"/>
          <polygon points="77.41 207.32 85.74 205.54 83.11 213.65 77.41 207.32" fill="#a47d76"/>
          <polygon points="192.14 204.9 185.49 210.22 184.21 201.8 192.14 204.9" fill="#a47d76" opacity="0.2"/>
          <polygon points="240.03 226.25 232.2 229.61 233.2 221.15 240.03 226.25" fill="#a47d76" opacity="0.2"/>
          <polygon points="168.13 196.35 175.71 192.47 175.28 200.98 168.13 196.35" fill="#a47d76"/>
          <polygon points="32.69 179.3 40.41 175.71 39.66 184.19 32.69 179.3" fill="#a47d76" opacity="0.6"/>
          <polygon points="224.85 194.3 217.89 199.21 217.12 190.72 224.85 194.3" fill="#a47d76" opacity="0.6"/>
          <polygon points="263.63 175.33 256.45 179.91 256.07 171.4 263.63 175.33" fill="#a47d76" opacity="0.2"/>
          <polygon points="202.75 204.38 210.38 200.59 209.84 209.1 202.75 204.38" fill="#a47d76" opacity="0.6"/>
          <polygon points="65.5 196.57 72.62 191.89 73.11 200.4 65.5 196.57" fill="#a47d76"/>
          <polygon points="67.54 186.73 60.3 191.22 60.03 182.7 67.54 186.73" fill="#a47d76" opacity="0.2"/>
          <polygon points="68.87 216.1 73.67 209.06 77.36 216.74 68.87 216.1" fill="#a47d76" opacity="0.6"/>
          <polygon points="99.02 184.92 103.5 192.17 94.98 192.42 99.02 184.92" fill="#a47d76" opacity="0.4"/>
          <polygon points="255.79 206.06 251.82 198.52 260.33 198.85 255.79 206.06" fill="#a47d76" opacity="0.8"/>
          <polygon points="65.89 221.92 73.48 225.78 66.34 230.43 65.89 221.92" fill="#a47d76" opacity="0.4"/>
          <polygon points="83.3 242.4 77.43 236.22 85.72 234.23 83.3 242.4" fill="#a47d76" opacity="0.8"/>
          <polygon points="43.92 208.75 41.71 200.52 49.94 202.72 43.92 208.75" fill="#a47d76" opacity="0.4"/>
          <polygon points="246.28 205.06 237.8 205.91 241.3 198.14 246.28 205.06" fill="#a47d76" opacity="0.4"/>
          <polygon points="245.75 184.42 246.14 192.93 238.57 189 245.75 184.42" fill="#a47d76" opacity="0.8"/>
          <polygon points="213.53 191.25 210.17 183.42 218.63 184.43 213.53 191.25" fill="#a47d76"/>
          <polygon points="208.93 215.83 208.66 224.34 201.42 219.84 208.93 215.83" fill="#a47d76"/>
          <polygon points="175.21 180.32 171.46 172.67 179.96 173.25 175.21 180.32" fill="#a47d76" opacity="0.6"/>
          <polygon points="201.03 189.69 203.49 181.53 209.32 187.74 201.03 189.69" fill="#a47d76" opacity="0.4"/>
          <polygon points="79.22 198.79 85.96 193.59 87.1 202.03 79.22 198.79" fill="#a47d76"/>
          <polygon points="103.98 213.72 101.87 205.47 110.08 207.77 103.98 213.72" fill="#a47d76" opacity="0.4"/>
          <polygon points="57.39 179.95 53.68 172.28 62.18 172.9 57.39 179.95" fill="#a47d76" opacity="0.4"/>
          <polygon points="218.43 238.22 216.8 246.58 210.37 241 218.43 238.22" fill="#a47d76" opacity="0.4"/>
          <polygon points="199.82 202.29 194.79 195.41 203.26 194.49 199.82 202.29" fill="#a47d76"/>
          <polygon points="236.11 211.56 244.57 212.63 239.42 219.41 236.11 211.56" fill="#a47d76" opacity="0.4"/>
          <polygon points="192.13 193.45 187.6 186.24 196.12 185.92 192.13 193.45" fill="#a47d76" opacity="0.6"/>
          <polygon points="202.99 210.15 195.06 213.27 196.33 204.84 202.99 210.15" fill="#a47d76" opacity="0.8"/>
          <polygon points="268.36 190.64 259.86 191.15 263.67 183.53 268.36 190.64" fill="#a47d76" opacity="0.6"/>
          <polygon points="49.85 217.12 57.93 214.4 56.24 222.75 49.85 217.12" fill="#a47d76" opacity="0.6"/>
          <polygon points="103.09 224.59 97.59 231.11 94.7 223.09 103.09 224.59" fill="#a47d76" opacity="0.6"/>
          <polygon points="45.83 189.34 52.79 184.43 53.56 192.92 45.83 189.34" fill="#a47d76" opacity="0.2"/>
        </g>
        <path d="M74.56,161c-3-38.48,22.72-23.36,24.41-68.2,0,0,40.16-33.42,108.13-13.75,0,0,40.37-14.95,80-.46,28.18,10.29,39.1,25.14,43.26,31.89,0-16.12-25-43.87-78.06-54.43C189.64,43.53,90.24,25,99,92.75,99,92.75,53,90,74.56,161Z" transform="translate(-57.55 -13.81)" fill="url(#linear-gradient-2)"/>
      </g>
      <g id="eyes-eyebrows">
        <g id="right">
          <g id="sclera">
            <path d="M266.5,194.08a39.33,39.33,0,0,1-29.75-13,21.57,21.57,0,0,1,0-28.69,40.61,40.61,0,0,1,59.51,0,21.57,21.57,0,0,1,0,28.69A39.33,39.33,0,0,1,266.5,194.08Z" transform="translate(-57.55 -13.81)" fill="#f9f7f4"/>
            <path d="M266.5,139.95a39,39,0,0,1,29.38,12.8,21,21,0,0,1,0,28,40.11,40.11,0,0,1-58.76,0,21,21,0,0,1,0-28,39,39,0,0,1,29.38-12.8m0-1a39.83,39.83,0,0,0-30.13,13.14,22.07,22.07,0,0,0,0,29.35,41.11,41.11,0,0,0,60.26,0,22.07,22.07,0,0,0,0-29.35,39.83,39.83,0,0,0-30.13-13.14h0Z" transform="translate(-57.55 -13.81)" fill="#ead6cc"/>
          </g>
          <g id="iris">
            <g clip-path="url(#clip-path)">
              <circle id="iris-color-gradient" cx="208.95" cy="147.78" r="25.83" stroke="#326372" stroke-miterlimit="10" fill="url(#radial-gradient-2)"/>
              <g id="triangles">
                <g opacity="0.2">
                  <g>
                    <path d="M282.63,165.56s0.55,0.38,1.35,1a23.89,23.89,0,0,1,2.73,2.65,24.54,24.54,0,0,1,2.39,3.13c0.6,0.92,1,1.58,1,1.58l0.87-1.81a27.73,27.73,0,0,0,1.39-4.2,16.74,16.74,0,0,0,.46-2.32,16.07,16.07,0,0,0,.24-2l0.1-2s-0.64.41-1.61,0.94a26.49,26.49,0,0,1-3.57,1.66,28.14,28.14,0,0,1-3.64,1.08C283.3,165.48,282.63,165.56,282.63,165.56Z" transform="translate(-57.55 -13.81)" fill="#7ec1ba"/>
                    <path d="M278.93,172.6s0.3,0.59.71,1.55a24.3,24.3,0,0,1,1.19,3.62,24.93,24.93,0,0,1,.67,3.88c0.11,1.09.13,1.85,0.13,1.85l1.61-1.2a27.85,27.85,0,0,0,3.18-3.06,18.18,18.18,0,0,0,1.48-1.83l0.65-.87,0.51-.83,0.75-1.25a3.66,3.66,0,0,0,.26-0.49s-0.73.08-1.84,0.1a28.11,28.11,0,0,1-3.93-.19,28.67,28.67,0,0,1-3.73-.74C279.57,172.83,278.93,172.6,278.93,172.6Z" transform="translate(-57.55 -13.81)" fill="#7ec1ba"/>
                    <path d="M272.39,177.12s0,0.67-.09,1.7a23.85,23.85,0,0,1-.63,3.75,24.38,24.38,0,0,1-1.22,3.75c-0.42,1-.75,1.69-0.75,1.69l2-.31a28.26,28.26,0,0,0,4.25-1.24,17.42,17.42,0,0,0,2.17-.94,15.26,15.26,0,0,0,1.82-1l1.24-.76a3.31,3.31,0,0,0,.46-0.31l-0.46-.19c-0.3-.13-0.72-0.33-1.22-0.58a27.5,27.5,0,0,1-3.4-2,28.39,28.39,0,0,1-3-2.39C272.84,177.62,272.39,177.12,272.39,177.12Z" transform="translate(-57.55 -13.81)" fill="#7ec1ba"/>
                    <path d="M264.49,178.08s-0.31.58-.87,1.45a23.21,23.21,0,0,1-2.3,3,27.25,27.25,0,0,1-4.27,3.9l0.52,0.19a14.25,14.25,0,0,0,1.38.46l2,0.51c0.74,0.15,1.54.25,2.33,0.38s1.6,0.12,2.35.17a15.3,15.3,0,0,0,2.05,0l1.45-.08,0.55-.07a17.23,17.23,0,0,1-1.13-1.46,31.31,31.31,0,0,1-2.08-3.34A29.19,29.19,0,0,1,265,179.7,16.31,16.31,0,0,1,264.49,178.08Z" transform="translate(-57.55 -13.81)" fill="#7ec1ba"/>
                    <path d="M257.06,175.27s-0.55.37-1.44,0.87a23.75,23.75,0,0,1-3.45,1.62,27.73,27.73,0,0,1-5.59,1.47l0.37,0.41a14.52,14.52,0,0,0,1,1l1.53,1.38c0.59,0.47,1.24.94,1.88,1.42a27,27,0,0,0,3.84,2.19,12.7,12.7,0,0,0,1.33.59l0.52,0.19s-0.17-.73-0.33-1.79a31.18,31.18,0,0,1-.28-3.95,26.15,26.15,0,0,1,.3-3.81c0.08-.5.15-0.91,0.21-1.2Z" transform="translate(-57.55 -13.81)" fill="#7ec1ba"/>
                    <path d="M251.77,169.3s-0.65.07-1.68,0.11a23.36,23.36,0,0,1-3.81-.17,27.27,27.27,0,0,1-5.63-1.3l0.14,0.54a13.86,13.86,0,0,0,.4,1.4l0.71,1.94c0.3,0.69.66,1.41,1,2.14a26.71,26.71,0,0,0,2.38,3.72,13.72,13.72,0,0,0,.9,1.14l0.37,0.41s0.19-.72.54-1.74a31.37,31.37,0,0,1,1.58-3.62,26.64,26.64,0,0,1,2-3.24C251.31,169.82,251.77,169.3,251.77,169.3Z" transform="translate(-57.55 -13.81)" fill="#7ec1ba"/>
                    <path d="M249.86,161.58s-0.61-.24-1.52-0.69A25.44,25.44,0,0,1,245,159a31,31,0,0,1-3.09-2.47c-0.78-.74-1.29-1.29-1.29-1.29l-0.14.54a11.84,11.84,0,0,0-.27,1.43c-0.08.6-.23,1.29-0.27,2l-0.12,2.35,0.12,2.35c0,0.75.19,1.44,0.27,2a11.84,11.84,0,0,0,.27,1.43l0.14,0.54s0.5-.55,1.29-1.29a31,31,0,0,1,3.09-2.47,25.44,25.44,0,0,1,3.3-1.92C249.25,161.82,249.86,161.58,249.86,161.58Z" transform="translate(-57.55 -13.81)" fill="#7ec1ba"/>
                    <path d="M251.77,153.86s-0.46-.51-1-1.32a26.64,26.64,0,0,1-2-3.24,31.37,31.37,0,0,1-1.58-3.62c-0.35-1-.54-1.74-0.54-1.74l-0.37.41a13.72,13.72,0,0,0-.9,1.14,26.71,26.71,0,0,0-2.38,3.72c-0.35.72-.71,1.45-1,2.14l-0.71,1.94a13.86,13.86,0,0,0-.4,1.4l-0.14.54a27.27,27.27,0,0,1,5.63-1.3,23.36,23.36,0,0,1,3.81-.17C251.12,153.78,251.77,153.86,251.77,153.86Z" transform="translate(-57.55 -13.81)" fill="#7ec1ba"/>
                    <path d="M257.06,147.89l-0.1-.46c-0.06-.29-0.13-0.69-0.21-1.2a26.15,26.15,0,0,1-.3-3.81,31.18,31.18,0,0,1,.28-3.95c0.17-1.06.33-1.79,0.33-1.79l-0.52.19a12.7,12.7,0,0,0-1.33.59,27,27,0,0,0-3.84,2.19c-0.64.48-1.29,1-1.88,1.42L248,142.47a14.52,14.52,0,0,0-1,1l-0.37.41a27.73,27.73,0,0,1,5.59,1.47,23.75,23.75,0,0,1,3.45,1.62C256.51,147.53,257.06,147.89,257.06,147.89Z" transform="translate(-57.55 -13.81)" fill="#7ec1ba"/>
                    <path d="M264.49,145.08a16.31,16.31,0,0,1,.5-1.62,29.19,29.19,0,0,1,1.51-3.52,31.31,31.31,0,0,1,2.08-3.34,17.23,17.23,0,0,1,1.13-1.46l-0.55-.07L267.7,135a15.3,15.3,0,0,0-2.05,0c-0.75.05-1.56,0-2.35,0.17s-1.59.23-2.33,0.38l-2,.51a14.25,14.25,0,0,0-1.38.46l-0.52.19a27.25,27.25,0,0,1,4.27,3.9,23.21,23.21,0,0,1,2.3,3C264.18,144.5,264.49,145.08,264.49,145.08Z" transform="translate(-57.55 -13.81)" fill="#7ec1ba"/>
                    <path d="M272.39,146s0.45-.5,1.2-1.23a28.39,28.39,0,0,1,3-2.39,27.5,27.5,0,0,1,3.4-2c0.49-.25.92-0.44,1.22-0.58l0.46-.19a3.31,3.31,0,0,0-.46-0.31l-1.24-.76a15.26,15.26,0,0,0-1.82-1,17.42,17.42,0,0,0-2.17-.94,28.26,28.26,0,0,0-4.25-1.24l-2-.31s0.33,0.68.75,1.69a24.38,24.38,0,0,1,1.22,3.75,23.85,23.85,0,0,1,.63,3.75C272.39,145.38,272.39,146,272.39,146Z" transform="translate(-57.55 -13.81)" fill="#7ec1ba"/>
                    <path d="M278.93,150.57s0.63-.24,1.63-0.53a28.67,28.67,0,0,1,3.73-.74,28.11,28.11,0,0,1,3.93-.19c1.12,0,1.84.1,1.84,0.1a3.66,3.66,0,0,0-.26-0.49l-0.75-1.25-0.51-.83-0.65-.87a18.18,18.18,0,0,0-1.48-1.83,27.85,27.85,0,0,0-3.18-3.06l-1.61-1.2s0,0.76-.13,1.85a24.93,24.93,0,0,1-.67,3.88,24.3,24.3,0,0,1-1.19,3.62C279.24,150,278.93,150.57,278.93,150.57Z" transform="translate(-57.55 -13.81)" fill="#7ec1ba"/>
                    <path d="M282.63,157.6s0.67,0.08,1.69.29A28.14,28.14,0,0,1,288,159a26.49,26.49,0,0,1,3.57,1.66c1,0.53,1.61.94,1.61,0.94l-0.1-2a16.07,16.07,0,0,0-.24-2,16.74,16.74,0,0,0-.46-2.32,27.73,27.73,0,0,0-1.39-4.2l-0.87-1.81s-0.37.66-1,1.58a24.54,24.54,0,0,1-2.39,3.13,23.89,23.89,0,0,1-2.73,2.65C283.17,157.22,282.63,157.6,282.63,157.6Z" transform="translate(-57.55 -13.81)" fill="#7ec1ba"/>
                  </g>
                </g>
              </g>
              <circle id="pupil" cx="208.95" cy="147.78" r="16.57" fill="#1e2223" opacity="0.3" style="mix-blend-mode: multiply"/>
              <path id="reflect-light" d="M229.69,170.8c5.23-9.87,18.2-21.91,33.86-22.82" transform="translate(-57.55 -13.81)" fill="none" stroke-linecap="round" stroke-miterlimit="10" stroke-width="10" opacity="0.7" stroke="url(#linear-gradient-3)"/>
            </g>
          </g>
          <g id="eyebrow">
            <path d="M228.7,137.59s12.18-8.93,37.8-8.93,37.8,8.93,37.8,8.93" transform="translate(-57.55 -13.81)" fill="none" stroke="#916964" stroke-linecap="round" stroke-miterlimit="10" stroke-width="8"/>
          </g>
        </g>
        <g id="left">
          <g id="sclera-2" data-name="sclera">
            <path d="M147.47,194.08a39.33,39.33,0,0,1-29.75-13,21.57,21.57,0,0,1,0-28.69,40.61,40.61,0,0,1,59.51,0,21.57,21.57,0,0,1,0,28.69A39.33,39.33,0,0,1,147.47,194.08Z" transform="translate(-57.55 -13.81)" fill="#f9f7f4"/>
            <path d="M147.47,139.95a39,39,0,0,1,29.38,12.8,21,21,0,0,1,0,28,40.11,40.11,0,0,1-58.76,0,21,21,0,0,1,0-28,39,39,0,0,1,29.38-12.8m0-1a39.83,39.83,0,0,0-30.13,13.14,22.07,22.07,0,0,0,0,29.35,41.11,41.11,0,0,0,60.26,0,22.07,22.07,0,0,0,0-29.35,39.83,39.83,0,0,0-30.13-13.14h0Z" transform="translate(-57.55 -13.81)" fill="#ead6cc"/>
          </g>
          <g id="iris-2" data-name="iris">
            <g clip-path="url(#clip-path-2)">
              <circle id="iris-color-gradient-2" data-name="iris-color-gradient" cx="89.92" cy="147.78" r="25.83" stroke="#326372" stroke-miterlimit="10" fill="url(#radial-gradient-3)"/>
              <g id="triangles-2" data-name="triangles">
                <g opacity="0.2">
                  <g>
                    <path d="M163.6,165.56s0.55,0.38,1.35,1a23.89,23.89,0,0,1,2.73,2.65,24.54,24.54,0,0,1,2.39,3.13c0.6,0.92,1,1.58,1,1.58l0.87-1.81a27.73,27.73,0,0,0,1.39-4.2,16.74,16.74,0,0,0,.46-2.32,16.07,16.07,0,0,0,.24-2l0.1-2s-0.64.41-1.61,0.94a26.49,26.49,0,0,1-3.57,1.66,28.14,28.14,0,0,1-3.64,1.08C164.27,165.48,163.6,165.56,163.6,165.56Z" transform="translate(-57.55 -13.81)" fill="#7ec1ba"/>
                    <path d="M159.91,172.6s0.3,0.59.71,1.55a24.31,24.31,0,0,1,1.19,3.62,24.92,24.92,0,0,1,.67,3.88c0.11,1.09.13,1.85,0.13,1.85l1.61-1.2a27.85,27.85,0,0,0,3.18-3.06,18.18,18.18,0,0,0,1.48-1.83l0.65-.87,0.51-.83,0.75-1.25A3.66,3.66,0,0,0,171,174s-0.73.08-1.84,0.1a28.11,28.11,0,0,1-3.93-.19,28.67,28.67,0,0,1-3.73-.74C160.54,172.83,159.91,172.6,159.91,172.6Z" transform="translate(-57.55 -13.81)" fill="#7ec1ba"/>
                    <path d="M153.36,177.12s0,0.67-.09,1.7a23.85,23.85,0,0,1-.63,3.75,24.38,24.38,0,0,1-1.22,3.75c-0.42,1-.75,1.69-0.75,1.69l2-.31a28.26,28.26,0,0,0,4.25-1.24,17.42,17.42,0,0,0,2.17-.94,15.26,15.26,0,0,0,1.82-1l1.24-.76a3.31,3.31,0,0,0,.46-0.31l-0.46-.19c-0.3-.13-0.72-0.33-1.22-0.58a27.5,27.5,0,0,1-3.4-2,28.39,28.39,0,0,1-3-2.39C153.81,177.62,153.36,177.12,153.36,177.12Z" transform="translate(-57.55 -13.81)" fill="#7ec1ba"/>
                    <path d="M145.46,178.08s-0.31.58-.87,1.45a23.21,23.21,0,0,1-2.3,3,27.25,27.25,0,0,1-4.27,3.9l0.52,0.19a14.25,14.25,0,0,0,1.38.46l2,0.51c0.74,0.15,1.54.25,2.33,0.38s1.6,0.12,2.35.17a15.3,15.3,0,0,0,2.05,0l1.45-.08,0.55-.07a17.24,17.24,0,0,1-1.13-1.46,31.31,31.31,0,0,1-2.08-3.34A29.19,29.19,0,0,1,146,179.7,16.31,16.31,0,0,1,145.46,178.08Z" transform="translate(-57.55 -13.81)" fill="#7ec1ba"/>
                    <path d="M138,175.27s-0.55.37-1.44,0.87a23.75,23.75,0,0,1-3.45,1.62,27.73,27.73,0,0,1-5.59,1.47l0.37,0.41a14.52,14.52,0,0,0,1,1l1.53,1.38c0.59,0.47,1.24.94,1.88,1.42a27,27,0,0,0,3.84,2.19,12.7,12.7,0,0,0,1.33.59l0.52,0.19s-0.17-.73-0.33-1.79a31.18,31.18,0,0,1-.28-3.95,26.15,26.15,0,0,1,.3-3.81c0.08-.5.15-0.91,0.21-1.2Z" transform="translate(-57.55 -13.81)" fill="#7ec1ba"/>
                    <path d="M132.75,169.3s-0.65.07-1.68,0.11a23.36,23.36,0,0,1-3.81-.17,27.27,27.27,0,0,1-5.63-1.3l0.14,0.54a13.87,13.87,0,0,0,.4,1.4l0.71,1.94c0.3,0.69.66,1.41,1,2.14a26.71,26.71,0,0,0,2.38,3.72,13.72,13.72,0,0,0,.9,1.14l0.37,0.41s0.19-.72.54-1.74a31.37,31.37,0,0,1,1.58-3.62,26.64,26.64,0,0,1,2-3.24C132.28,169.82,132.75,169.3,132.75,169.3Z" transform="translate(-57.55 -13.81)" fill="#7ec1ba"/>
                    <path d="M130.83,161.58s-0.61-.24-1.52-0.69A25.44,25.44,0,0,1,126,159a31,31,0,0,1-3.09-2.47c-0.78-.74-1.29-1.29-1.29-1.29l-0.14.54a11.83,11.83,0,0,0-.27,1.43c-0.08.6-.23,1.29-0.27,2l-0.12,2.35,0.12,2.35c0,0.75.19,1.44,0.27,2a11.83,11.83,0,0,0,.27,1.43l0.14,0.54s0.5-.55,1.29-1.29a31,31,0,0,1,3.09-2.47,25.44,25.44,0,0,1,3.3-1.92C130.23,161.82,130.83,161.58,130.83,161.58Z" transform="translate(-57.55 -13.81)" fill="#7ec1ba"/>
                    <path d="M132.75,153.86s-0.46-.51-1-1.32a26.64,26.64,0,0,1-2-3.24,31.37,31.37,0,0,1-1.58-3.62c-0.35-1-.54-1.74-0.54-1.74l-0.37.41a13.72,13.72,0,0,0-.9,1.14,26.71,26.71,0,0,0-2.38,3.72c-0.35.72-.71,1.45-1,2.14l-0.71,1.94a13.87,13.87,0,0,0-.4,1.4l-0.14.54a27.27,27.27,0,0,1,5.63-1.3,23.36,23.36,0,0,1,3.81-.17C132.09,153.78,132.75,153.86,132.75,153.86Z" transform="translate(-57.55 -13.81)" fill="#7ec1ba"/>
                    <path d="M138,147.89l-0.1-.46c-0.06-.29-0.13-0.69-0.21-1.2a26.15,26.15,0,0,1-.3-3.81,31.18,31.18,0,0,1,.28-3.95c0.17-1.06.33-1.79,0.33-1.79l-0.52.19a12.7,12.7,0,0,0-1.33.59,27,27,0,0,0-3.84,2.19c-0.64.48-1.29,1-1.88,1.42l-1.53,1.38a14.52,14.52,0,0,0-1,1l-0.37.41a27.73,27.73,0,0,1,5.59,1.47,23.75,23.75,0,0,1,3.45,1.62C137.48,147.53,138,147.89,138,147.89Z" transform="translate(-57.55 -13.81)" fill="#7ec1ba"/>
                    <path d="M145.46,145.08a16.31,16.31,0,0,1,.5-1.62,29.19,29.19,0,0,1,1.51-3.52,31.31,31.31,0,0,1,2.08-3.34,17.24,17.24,0,0,1,1.13-1.46l-0.55-.07-1.45-.08a15.3,15.3,0,0,0-2.05,0c-0.75.05-1.56,0-2.35,0.17s-1.59.23-2.33,0.38l-2,.51a14.25,14.25,0,0,0-1.38.46l-0.52.19a27.25,27.25,0,0,1,4.27,3.9,23.21,23.21,0,0,1,2.3,3C145.15,144.5,145.46,145.08,145.46,145.08Z" transform="translate(-57.55 -13.81)" fill="#7ec1ba"/>
                    <path d="M153.36,146s0.45-.5,1.2-1.23a28.39,28.39,0,0,1,3-2.39,27.5,27.5,0,0,1,3.4-2c0.49-.25.92-0.44,1.22-0.58l0.46-.19a3.31,3.31,0,0,0-.46-0.31l-1.24-.76a15.26,15.26,0,0,0-1.82-1,17.42,17.42,0,0,0-2.17-.94,28.26,28.26,0,0,0-4.25-1.24l-2-.31s0.33,0.68.75,1.69a24.38,24.38,0,0,1,1.22,3.75,23.85,23.85,0,0,1,.63,3.75C153.36,145.38,153.36,146,153.36,146Z" transform="translate(-57.55 -13.81)" fill="#7ec1ba"/>
                    <path d="M159.91,150.57s0.63-.24,1.63-0.53a28.67,28.67,0,0,1,3.73-.74,28.11,28.11,0,0,1,3.93-.19c1.12,0,1.84.1,1.84,0.1a3.66,3.66,0,0,0-.26-0.49L170,147.47l-0.51-.83-0.65-.87a18.18,18.18,0,0,0-1.48-1.83,27.85,27.85,0,0,0-3.18-3.06l-1.61-1.2s0,0.76-.13,1.85a24.92,24.92,0,0,1-.67,3.88,24.31,24.31,0,0,1-1.19,3.62C160.21,150,159.91,150.57,159.91,150.57Z" transform="translate(-57.55 -13.81)" fill="#7ec1ba"/>
                    <path d="M163.6,157.6s0.67,0.08,1.69.29a28.14,28.14,0,0,1,3.64,1.08,26.49,26.49,0,0,1,3.57,1.66c1,0.53,1.61.94,1.61,0.94l-0.1-2a16.07,16.07,0,0,0-.24-2,16.74,16.74,0,0,0-.46-2.32,27.73,27.73,0,0,0-1.39-4.2L171,149.2s-0.37.66-1,1.58a24.54,24.54,0,0,1-2.39,3.13,23.89,23.89,0,0,1-2.73,2.65C164.15,157.22,163.6,157.6,163.6,157.6Z" transform="translate(-57.55 -13.81)" fill="#7ec1ba"/>
                  </g>
                </g>
              </g>
              <circle id="pupil-2" data-name="pupil" cx="89.92" cy="147.78" r="16.57" fill="#1e2223" opacity="0.3" style="mix-blend-mode: multiply"/>
              <path id="reflect-light-2" data-name="reflect-light" d="M110.87,170.8c5.23-9.87,18.2-21.91,33.86-22.82" transform="translate(-57.55 -13.81)" fill="none" stroke-linecap="round" stroke-miterlimit="10" stroke-width="10" opacity="0.7" stroke="url(#linear-gradient-4)"/>
            </g>
          </g>
          <g id="eyebrow-2" data-name="eyebrow">
            <path d="M109.67,137.59s12.18-8.93,37.8-8.93,37.8,8.93,37.8,8.93" transform="translate(-57.55 -13.81)" fill="none" stroke="#916964" stroke-linecap="round" stroke-miterlimit="10" stroke-width="8"/>
          </g>
        </g>
      </g>
      <path id="mouth" d="M236.23,237.87a30.15,30.15,0,0,1-60-.89,112.51,112.51,0,0,0,31.61,4.28A115.19,115.19,0,0,0,236.23,237.87Z" transform="translate(-57.55 -13.81)" fill="url(#radial-gradient-4)"/>
      <g id="nose">
        <path d="M213.9,178.28c3.1-5.79,12.93-2.73,11.87,4.8-2.2,15.56-8.24,29.52-17.71,38.09-8.5,7.7-20.51,6.71-26.28-.31-5.64-6.84-3.77-15.13,4.31-19.42S205.67,193.67,213.9,178.28Z" transform="translate(-57.55 -13.81)" fill="url(#New_Gradient_Swatch)"/>
      </g>
      <g id="glasses">
        <line x1="227.34" y1="166.96" x2="288.2" y2="166.96" fill="none" stroke="#5d5a62" stroke-linecap="round" stroke-miterlimit="10" stroke-width="6"/>
        <line x1="10.97" y1="166.96" x2="72.61" y2="166.96" fill="none" stroke="#5d5a62" stroke-linecap="round" stroke-miterlimit="10" stroke-width="6"/>
        <line x1="121.77" y1="166.96" x2="177.09" y2="166.96" fill="none" stroke="#5d5a62" stroke-miterlimit="10" stroke-width="6"/>
        <circle cx="96.82" cy="173" r="25.85" fill="#fff" fill-opacity="0.5" stroke="#5d5a62" stroke-miterlimit="10" stroke-width="6"/>
        <circle cx="202.35" cy="173" r="25.85" fill="#fff" fill-opacity="0.5" stroke="#5d5a62" stroke-miterlimit="10" stroke-width="6"/>
      </g>
    </g>
  </g>
</svg>
