<svg class="female" xmlns="http://www.w3.org/2000/svg" xmlns:xlink="http://www.w3.org/1999/xlink" viewBox="0 0 340 384.5">
  <defs>
    <linearGradient id="linear-gradient" x1="94.14" y1="15.46" x2="228.46" y2="256.28" gradientUnits="userSpaceOnUse">
      <stop offset="0" stop-color="#cea89f"/>
      <stop offset="0.24" stop-color="#b5897f"/>
      <stop offset="0.81" stop-color="#9c726a"/>
      <stop offset="1" stop-color="#a27a73"/>
    </linearGradient>
    <radialGradient id="radial-gradient" cx="129.15" cy="134.83" r="188.3" gradientUnits="userSpaceOnUse">
      <stop offset="0" stop-color="#e6cebf"/>
      <stop offset="0.49" stop-color="#e5c9b8"/>
      <stop offset="0.85" stop-color="#dcbdaa"/>
      <stop offset="1" stop-color="#f0cfbb"/>
    </radialGradient>
    <linearGradient id="linear-gradient-2" x1="119.47" y1="12.16" x2="205.37" y2="166.16" xlink:href="#linear-gradient"/>
    <clipPath id="clip-path">
      <path d="M231.32,131.41a38.25,38.25,0,0,0-29.38,13.35,22.55,22.55,0,0,0,0,29.22,39,39,0,0,0,58.76,0,22.55,22.55,0,0,0,0-29.22A38.25,38.25,0,0,0,231.32,131.41Z" fill="none"/>
    </clipPath>
    <radialGradient id="radial-gradient-2" cx="232.95" cy="198.95" fx="201.25446710602233" r="89.21" gradientUnits="userSpaceOnUse">
      <stop offset="0.39" stop-color="#6e8895"/>
      <stop offset="0.69" stop-color="#326372"/>
      <stop offset="0.73" stop-color="#305f6e"/>
      <stop offset="0.77" stop-color="#2c5460"/>
      <stop offset="0.82" stop-color="#24424b"/>
      <stop offset="0.84" stop-color="#1e343a"/>
    </radialGradient>
    <linearGradient id="linear-gradient-3" x1="208.06" y1="143.55" x2="216.75" y2="156.87" gradientTransform="translate(-10.31 13.9) rotate(-3.34)" gradientUnits="userSpaceOnUse">
      <stop offset="0" stop-color="#fff"/>
      <stop offset="1" stop-color="#fff" stop-opacity="0"/>
    </linearGradient>
    <clipPath id="clip-path-2">
      <path d="M109.5,131.41a38.25,38.25,0,0,0-29.38,13.35,22.55,22.55,0,0,0,0,29.22,39,39,0,0,0,58.76,0,22.55,22.55,0,0,0,0-29.22A38.25,38.25,0,0,0,109.5,131.41Z" fill="none"/>
    </clipPath>
    <radialGradient id="radial-gradient-3" cx="111.13" cy="198.95" fx="79.4352895186094" r="89.21" xlink:href="#radial-gradient-2"/>
    <linearGradient id="linear-gradient-4" x1="86.45" y1="136.45" x2="95.14" y2="149.77" xlink:href="#linear-gradient-3"/>
    <radialGradient id="radial-gradient-4" cx="183.56" cy="299.63" r="127.66" gradientUnits="userSpaceOnUse">
      <stop offset="0.35" stop-color="#b37f7a"/>
      <stop offset="0.48" stop-color="#ad636f"/>
      <stop offset="0.62" stop-color="#943a56"/>
      <stop offset="0.79" stop-color="#5b2932"/>
    </radialGradient>
    <radialGradient id="New_Gradient_Swatch" data-name="New Gradient Swatch" cx="139.5" cy="211.98" r="60.82" gradientUnits="userSpaceOnUse">
      <stop offset="0" stop-color="#c6a38e"/>
      <stop offset="0.29" stop-color="#c9a692"/>
      <stop offset="0.58" stop-color="#d0b19e"/>
      <stop offset="0.87" stop-color="#ddc2b2"/>
      <stop offset="1" stop-color="#e5ccbe"/>
    </radialGradient>
  </defs>
  <title>gctavatar_3</title>
  <g style="isolation: isolate">
    <g id="girl">
      <g id="shirt">
        <ellipse cx="169.9" cy="344.35" rx="99.9" ry="40.15" fill="#fbf9f4"/>
      </g>
      <g id="head">
        <path id="hair" d="M170.18,274.92c-42.6,0-54.67,35.91-78.06,24.08a160.91,160.91,0,0,1-54.41-45C8.87,217.05-5.13,166.55,2,125.32,8,90.85,27.19,59.41,56,36.78,86.62,12.72,126.11,0,170.18,0s83.56,12.72,114.19,36.78c28.8,22.63,48,54.07,54,88.54,7.17,41.23-6.83,91.74-35.68,128.66a160.91,160.91,0,0,1-54.41,45C224.86,310.82,212.79,274.92,170.18,274.92Z" fill="url(#linear-gradient)"/>
        <path id="neck" d="M169.9,339c6.37,0,18.8-4.21,23.09-13.33,4.63-9.85-.44-14-2-46.67-1.63-34.58,2.8-36.89-1.54-46.67s-13-10.67-19.57-10.67-15.24.89-19.57,10.67,0.09,12.09-1.54,46.67c-1.54,32.67-6.61,36.82-2,46.67C151.1,334.75,163.53,339,169.9,339Z" fill="#dbbcaa"/>
        <path id="face" d="M170.18,272.83c105,0,148-91,138-145-9.14-49.38-59-94-138-94s-128.86,44.62-138,94C22.18,181.83,65.18,272.83,170.18,272.83Z" stroke="#e5ccbe" stroke-miterlimit="10" fill="url(#radial-gradient)"/>
        <g id="freckles" opacity="0.4">
          <polygon points="78.06 212.24 82.98 205.28 86.55 213.02 78.06 212.24" fill="#a47d76" opacity="0.6"/>
          <polygon points="210.71 218.95 204.5 224.79 202.55 216.49 210.71 218.95" fill="#a47d76" opacity="0.2"/>
          <polygon points="246.26 230.06 238.81 234.2 238.95 225.68 246.26 230.06" fill="#a47d76" opacity="0.2"/>
          <polygon points="100.33 227.77 106.33 221.72 108.57 229.94 100.33 227.77" fill="#a47d76" opacity="0.4"/>
          <polygon points="120.45 204.43 112.62 207.79 113.62 199.33 120.45 204.43" fill="#a47d76"/>
          <polygon points="100.72 191.38 107.3 185.96 108.7 194.37 100.72 191.38" fill="#a47d76"/>
          <polygon points="141.4 191.89 132.88 191.8 137.23 184.47 141.4 191.89" fill="#a47d76" opacity="0.6"/>
          <polygon points="259.4 186.81 252.34 191.58 251.74 183.08 259.4 186.81" fill="#a47d76" opacity="0.2"/>
          <polygon points="238.54 222.4 239.99 214 246.54 219.46 238.54 222.4" fill="#a47d76" opacity="0.4"/>
          <polygon points="63.36 159.37 71.39 162.21 64.92 167.75 63.36 159.37" fill="#a47d76" opacity="0.6"/>
          <polygon points="110.76 218.7 116.19 212.12 119.17 220.11 110.76 218.7" fill="#a47d76" opacity="0.2"/>
          <polygon points="253.82 207.34 246.72 212.05 246.19 203.54 253.82 207.34" fill="#a47d76"/>
          <polygon points="217.52 244.47 209.3 246.71 211.47 238.47 217.52 244.47" fill="#a47d76" opacity="0.2"/>
          <polygon points="146.85 177.89 153.54 172.62 154.76 181.05 146.85 177.89" fill="#a47d76" opacity="0.6"/>
          <polygon points="98.96 211.87 107.29 210.1 104.67 218.2 98.96 211.87" fill="#a47d76"/>
          <polygon points="213.7 209.46 207.04 214.78 205.76 206.36 213.7 209.46" fill="#a47d76" opacity="0.2"/>
          <polygon points="261.58 230.81 253.75 234.17 254.75 225.71 261.58 230.81" fill="#a47d76" opacity="0.2"/>
          <polygon points="189.68 200.91 197.26 197.03 196.83 205.54 189.68 200.91" fill="#a47d76"/>
          <polygon points="54.24 183.85 61.97 180.26 61.22 188.75 54.24 183.85" fill="#a47d76" opacity="0.6"/>
          <polygon points="246.41 198.85 239.44 203.76 238.67 195.28 246.41 198.85" fill="#a47d76" opacity="0.6"/>
          <polygon points="285.19 179.88 278 184.47 277.63 175.95 285.19 179.88" fill="#a47d76" opacity="0.2"/>
          <polygon points="224.3 208.93 231.93 205.15 231.4 213.65 224.3 208.93" fill="#a47d76" opacity="0.6"/>
          <polygon points="87.05 201.13 94.17 196.45 94.67 204.95 87.05 201.13" fill="#a47d76"/>
          <polygon points="89.09 191.28 81.85 195.77 81.59 187.25 89.09 191.28" fill="#a47d76" opacity="0.2"/>
          <polygon points="90.42 220.65 95.22 213.61 98.92 221.29 90.42 220.65" fill="#a47d76" opacity="0.6"/>
          <polygon points="120.58 189.48 125.05 196.73 116.53 196.98 120.58 189.48" fill="#a47d76" opacity="0.4"/>
          <polygon points="277.34 210.61 273.37 203.07 281.88 203.4 277.34 210.61" fill="#a47d76" opacity="0.8"/>
          <polygon points="87.44 226.47 95.04 230.34 87.89 234.99 87.44 226.47" fill="#a47d76" opacity="0.4"/>
          <polygon points="104.85 246.96 98.98 240.78 107.27 238.78 104.85 246.96" fill="#a47d76" opacity="0.8"/>
          <polygon points="65.48 213.3 63.26 205.07 71.5 207.27 65.48 213.3" fill="#a47d76" opacity="0.4"/>
          <polygon points="267.83 209.61 259.36 210.47 262.85 202.7 267.83 209.61" fill="#a47d76" opacity="0.4"/>
          <polygon points="267.31 188.97 267.69 197.48 260.13 193.56 267.31 188.97" fill="#a47d76" opacity="0.8"/>
          <polygon points="235.08 195.81 231.72 187.98 240.18 188.99 235.08 195.81" fill="#a47d76"/>
          <polygon points="230.49 220.38 230.21 228.9 222.97 224.4 230.49 220.38" fill="#a47d76"/>
          <polygon points="196.76 184.88 193.01 177.22 201.51 177.8 196.76 184.88" fill="#a47d76" opacity="0.6"/>
          <polygon points="222.58 194.24 225.04 186.09 230.88 192.3 222.58 194.24" fill="#a47d76" opacity="0.4"/>
          <polygon points="100.77 203.35 107.52 198.14 108.65 206.59 100.77 203.35" fill="#a47d76"/>
          <polygon points="125.53 218.28 123.42 210.02 131.63 212.33 125.53 218.28" fill="#a47d76" opacity="0.4"/>
          <polygon points="78.94 184.5 75.23 176.83 83.73 177.46 78.94 184.5" fill="#a47d76" opacity="0.4"/>
          <polygon points="239.98 242.77 238.36 251.14 231.92 245.55 239.98 242.77" fill="#a47d76" opacity="0.4"/>
          <polygon points="221.37 206.84 216.35 199.97 224.82 199.05 221.37 206.84" fill="#a47d76"/>
          <polygon points="257.67 216.12 266.12 217.18 260.97 223.97 257.67 216.12" fill="#a47d76" opacity="0.4"/>
          <polygon points="213.69 198.01 209.15 190.79 217.67 190.48 213.69 198.01" fill="#a47d76" opacity="0.6"/>
          <polygon points="224.55 214.71 216.62 217.83 217.88 209.4 224.55 214.71" fill="#a47d76" opacity="0.8"/>
          <polygon points="289.91 195.19 281.41 195.71 285.22 188.08 289.91 195.19" fill="#a47d76" opacity="0.6"/>
          <polygon points="71.4 221.67 79.48 218.96 77.79 227.31 71.4 221.67" fill="#a47d76" opacity="0.6"/>
          <polygon points="124.64 229.15 119.15 235.66 116.25 227.65 124.64 229.15" fill="#a47d76" opacity="0.6"/>
          <polygon points="67.38 193.9 74.34 188.99 75.11 197.47 67.38 193.9" fill="#a47d76" opacity="0.2"/>
        </g>
        <path id="bang" d="M277.09,45.9c-27.81-24.38-66-35.42-107.78-35.42S89.84,22.73,60.45,45.9A146,146,0,0,0,21.86,91.83c-2.25,4.22,0,9.49,4.4,10.3C128.31,121,171,100.88,220.07,67.69c40.71-.7,58.65,67.94,107.8,64.61C309.65,107.87,310.15,74.88,277.09,45.9Z" fill="url(#linear-gradient-2)"/>
      </g>
      <g id="eyes-eyebrows">
        <g id="right">
          <g id="sclera">
            <path d="M231.32,187.83a38.62,38.62,0,0,1-29.76-13.53,23.18,23.18,0,0,1,0-29.87,39.5,39.5,0,0,1,59.52,0,23.18,23.18,0,0,1,0,29.87A38.63,38.63,0,0,1,231.32,187.83Z" fill="#f9f7f4"/>
            <path d="M231.32,131.41a38.25,38.25,0,0,1,29.38,13.35,22.55,22.55,0,0,1,0,29.22,39,39,0,0,1-58.76,0,22.55,22.55,0,0,1,0-29.22,38.25,38.25,0,0,1,29.38-13.35m0-1a39.12,39.12,0,0,0-30.14,13.71,23.68,23.68,0,0,0,0,30.51,40,40,0,0,0,60.29,0,23.68,23.68,0,0,0,0-30.51,39.12,39.12,0,0,0-30.14-13.71h0Z" fill="#ead6cc"/>
          </g>
          <g id="iris">
            <g clip-path="url(#clip-path)">
              <circle id="iris-color-gradient" cx="232.17" cy="153.33" r="28.06" stroke="#326372" stroke-miterlimit="10" fill="url(#radial-gradient-2)"/>
              <g id="triangles">
                <g opacity="0.2">
                  <g>
                    <path d="M250.2,157.45s0.55,0.38,1.35,1a24.79,24.79,0,0,1,2.79,2.61,28.94,28.94,0,0,1,2.49,3.07c0.61,0.89,1,1.53,1,1.53l0.24-.5a11.64,11.64,0,0,0,.57-1.33l0.7-1.93c0.22-.72.4-1.5,0.6-2.27a20.9,20.9,0,0,0,.42-2.31l0.16-1.07,0.06-1,0.1-2a33.87,33.87,0,0,1-5.16,2.63,31.09,31.09,0,0,1-3.65,1.15c-0.48.12-.91,0.21-1.21,0.26Z" fill="#7ec1ba"/>
                    <path d="M246.63,164.85s0.36,0.6.77,1.52a31.51,31.51,0,0,1,1.39,3.58,33.62,33.62,0,0,1,.9,3.83c0.2,1.1.25,1.82,0.25,1.82s0.16-.12.43-0.34l1.07-1a27.68,27.68,0,0,0,3-3.2c0.48-.64,1-1.27,1.4-1.88l1.07-1.75a11.5,11.5,0,0,0,.68-1.28l0.24-.5s-0.74.1-1.82,0.17a29.41,29.41,0,0,1-4,0,25.37,25.37,0,0,1-3.78-.56C247.27,165,246.63,164.85,246.63,164.85Z" fill="#7ec1ba"/>
                    <path d="M240.19,170s0,0.67,0,1.71a26.65,26.65,0,0,1-.31,3.8,25.87,25.87,0,0,1-.85,3.85c-0.31,1-.57,1.76-0.57,1.76l1.94-.5c0.58-.17,1.23-0.43,1.93-0.68a29.12,29.12,0,0,0,4.22-2c0.64-.4,1.25-0.74,1.73-1.09l1.6-1.19s-0.72-.24-1.73-0.65a26.46,26.46,0,0,1-3.54-1.73,27.07,27.07,0,0,1-3.16-2.13C240.68,170.43,240.19,170,240.19,170Z" fill="#7ec1ba"/>
                    <path d="M232.17,171.83s-0.25.61-.7,1.52a29.08,29.08,0,0,1-1.93,3.32,33.55,33.55,0,0,1-2.43,3.1c-0.37.42-.69,0.75-0.91,1l-0.36.35,0.53,0.13c0.34,0.07.84,0.14,1.43,0.23a26.44,26.44,0,0,0,8.74,0c0.59-.09,1.09-0.16,1.43-0.23l0.53-.13-0.36-.35c-0.22-.22-0.54-0.55-0.91-1a33.55,33.55,0,0,1-2.43-3.1,29.09,29.09,0,0,1-1.93-3.32C232.42,172.44,232.17,171.83,232.17,171.83Z" fill="#7ec1ba"/>
                    <path d="M224.16,170s-0.5.45-1.31,1.1a27.08,27.08,0,0,1-3.16,2.13,26.45,26.45,0,0,1-3.54,1.73c-1,.41-1.73.65-1.73,0.65l1.6,1.19c0.48,0.35,1.1.69,1.73,1.09a29.12,29.12,0,0,0,4.22,2c0.71,0.25,1.36.51,1.93,0.68l1.94,0.5s-0.26-.71-0.57-1.76a25.88,25.88,0,0,1-.85-3.85,26.65,26.65,0,0,1-.31-3.8C224.11,170.65,224.16,170,224.16,170Z" fill="#7ec1ba"/>
                    <path d="M217.72,164.85s-0.64.19-1.64,0.41a25.37,25.37,0,0,1-3.78.56,29.41,29.41,0,0,1-4,0c-1.08-.07-1.82-0.17-1.82-0.17l0.24,0.5a11.5,11.5,0,0,0,.68,1.28l1.07,1.75c0.43,0.61.92,1.25,1.4,1.88a27.68,27.68,0,0,0,3,3.2l1.07,1c0.27,0.22.43,0.34,0.43,0.34s0.05-.72.25-1.82a33.61,33.61,0,0,1,.9-3.83,31.51,31.51,0,0,1,1.39-3.58C217.36,165.46,217.72,164.85,217.72,164.85Z" fill="#7ec1ba"/>
                    <path d="M214.15,157.45l-0.47-.08c-0.3-.05-0.72-0.14-1.21-0.26a31.09,31.09,0,0,1-3.65-1.15,33.87,33.87,0,0,1-5.16-2.63l0.1,2,0.06,1,0.16,1.07a20.91,20.91,0,0,0,.42,2.31c0.2,0.77.39,1.55,0.6,2.27l0.7,1.93a11.64,11.64,0,0,0,.57,1.33l0.24,0.5s0.38-.64,1-1.53a28.94,28.94,0,0,1,2.49-3.07,24.78,24.78,0,0,1,2.79-2.61C213.61,157.83,214.15,157.45,214.15,157.45Z" fill="#7ec1ba"/>
                    <path d="M214.15,149.21s-0.55-.38-1.35-1a24.78,24.78,0,0,1-2.79-2.61,28.94,28.94,0,0,1-2.49-3.07c-0.61-.89-1-1.53-1-1.53l-0.24.5a11.64,11.64,0,0,0-.57,1.33l-0.7,1.93c-0.22.72-.4,1.5-0.6,2.27a20.91,20.91,0,0,0-.42,2.31l-0.16,1.07-0.06,1-0.1,2a33.87,33.87,0,0,1,5.16-2.63,31.09,31.09,0,0,1,3.65-1.15c0.48-.12.91-0.21,1.21-0.26Z" fill="#7ec1ba"/>
                    <path d="M217.72,141.81s-0.36-.6-0.77-1.52a31.51,31.51,0,0,1-1.39-3.58,33.61,33.61,0,0,1-.9-3.83c-0.2-1.1-.25-1.82-0.25-1.82s-0.16.12-.43,0.34l-1.07,1a27.68,27.68,0,0,0-3,3.2c-0.48.64-1,1.27-1.4,1.88l-1.07,1.75a11.5,11.5,0,0,0-.68,1.28l-0.24.5s0.74-.1,1.82-0.17a29.41,29.41,0,0,1,4,0,25.37,25.37,0,0,1,3.78.56C217.08,141.62,217.72,141.81,217.72,141.81Z" fill="#7ec1ba"/>
                    <path d="M224.16,136.68s0-.67,0-1.71a26.65,26.65,0,0,1,.31-3.8,25.88,25.88,0,0,1,.85-3.85c0.31-1,.57-1.76.57-1.76l-1.94.5c-0.58.17-1.23,0.43-1.93,0.68a29.12,29.12,0,0,0-4.22,2c-0.64.4-1.25,0.74-1.73,1.09l-1.6,1.19s0.72,0.24,1.73.65a26.45,26.45,0,0,1,3.54,1.73,27.08,27.08,0,0,1,3.16,2.13C223.66,136.23,224.16,136.68,224.16,136.68Z" fill="#7ec1ba"/>
                    <path d="M232.17,134.83s0.25-.61.7-1.52A29.09,29.09,0,0,1,234.8,130a33.55,33.55,0,0,1,2.43-3.1c0.37-.42.69-0.75,0.91-1l0.36-.35-0.53-.13c-0.34-.07-0.84-0.14-1.43-0.23a26.44,26.44,0,0,0-8.74,0c-0.59.09-1.09,0.16-1.43,0.23l-0.53.13,0.36,0.35c0.22,0.22.54,0.55,0.91,1a33.55,33.55,0,0,1,2.43,3.1,29.08,29.08,0,0,1,1.93,3.32C231.92,134.22,232.17,134.83,232.17,134.83Z" fill="#7ec1ba"/>
                    <path d="M240.19,136.68s0.5-.45,1.31-1.1a27.07,27.07,0,0,1,3.16-2.13,26.45,26.45,0,0,1,3.54-1.73c1-.41,1.73-0.65,1.73-0.65l-1.6-1.19c-0.48-.35-1.1-0.69-1.73-1.09a29.12,29.12,0,0,0-4.22-2c-0.71-.25-1.36-0.51-1.93-0.68l-1.94-.5s0.26,0.71.57,1.76a25.87,25.87,0,0,1,.85,3.85,26.65,26.65,0,0,1,.31,3.8C240.24,136,240.19,136.68,240.19,136.68Z" fill="#7ec1ba"/>
                    <path d="M246.63,141.81s0.64-.19,1.64-0.41a25.37,25.37,0,0,1,3.78-.56,29.41,29.41,0,0,1,4,0c1.08,0.07,1.82.17,1.82,0.17l-0.24-.5a11.5,11.5,0,0,0-.68-1.28l-1.07-1.75c-0.43-.61-0.92-1.25-1.4-1.88a27.68,27.68,0,0,0-3-3.2l-1.07-1c-0.27-.22-0.43-0.34-0.43-0.34s-0.05.72-.25,1.82a33.62,33.62,0,0,1-.9,3.83,31.51,31.51,0,0,1-1.39,3.58C247,141.2,246.63,141.81,246.63,141.81Z" fill="#7ec1ba"/>
                    <path d="M250.2,149.21l0.47,0.08c0.3,0.05.72,0.14,1.21,0.26a31.09,31.09,0,0,1,3.65,1.15,33.87,33.87,0,0,1,5.16,2.63l-0.1-2-0.06-1-0.16-1.07a20.9,20.9,0,0,0-.42-2.31c-0.2-.77-0.39-1.55-0.6-2.27l-0.7-1.93a11.64,11.64,0,0,0-.57-1.33l-0.24-.5s-0.38.64-1,1.53a28.94,28.94,0,0,1-2.49,3.07,24.79,24.79,0,0,1-2.79,2.61C250.74,148.83,250.2,149.21,250.2,149.21Z" fill="#7ec1ba"/>
                  </g>
                </g>
              </g>
              <circle id="pupil" cx="232.17" cy="153.33" r="18" fill="#1e2223" opacity="0.3" style="mix-blend-mode: multiply"/>
              <path id="reflect-light" d="M194.79,164.55c5.23-9.87,18.2-21.91,33.86-22.82" fill="none" stroke-linecap="round" stroke-miterlimit="10" stroke-width="10" opacity="0.7" stroke="url(#linear-gradient-3)"/>
            </g>
          </g>
          <g id="eyebrow">
            <path d="M193.52,135.68a50,50,0,0,1,75.6,0" fill="none" stroke="#916964" stroke-linecap="round" stroke-miterlimit="10" stroke-width="6"/>
          </g>
        </g>
        <g id="left">
          <g id="sclera-2" data-name="sclera">
            <path d="M109.5,187.83A38.63,38.63,0,0,1,79.74,174.3a23.18,23.18,0,0,1,0-29.87,39.5,39.5,0,0,1,59.52,0,23.18,23.18,0,0,1,0,29.87A38.62,38.62,0,0,1,109.5,187.83Z" fill="#f9f7f4"/>
            <path d="M109.5,131.41a38.25,38.25,0,0,1,29.38,13.35,22.55,22.55,0,0,1,0,29.22,39,39,0,0,1-58.76,0,22.55,22.55,0,0,1,0-29.22,38.25,38.25,0,0,1,29.38-13.35m0-1a39.12,39.12,0,0,0-30.14,13.71,23.68,23.68,0,0,0,0,30.51,40,40,0,0,0,60.29,0,23.68,23.68,0,0,0,0-30.51,39.12,39.12,0,0,0-30.14-13.71h0Z" fill="#ead6cc"/>
          </g>
          <g id="iris-2" data-name="iris">
            <g clip-path="url(#clip-path-2)">
              <circle id="iris-color-gradient-2" data-name="iris-color-gradient" cx="110.36" cy="153.33" r="28.06" stroke="#326372" stroke-miterlimit="10" fill="url(#radial-gradient-3)"/>
              <g id="triangles-2" data-name="triangles">
                <g opacity="0.2">
                  <g>
                    <path d="M128.38,157.45s0.55,0.38,1.35,1a24.78,24.78,0,0,1,2.79,2.61,28.94,28.94,0,0,1,2.49,3.07c0.61,0.89,1,1.53,1,1.53l0.24-.5a11.64,11.64,0,0,0,.57-1.33l0.7-1.93c0.22-.72.4-1.5,0.6-2.27a20.9,20.9,0,0,0,.42-2.31l0.16-1.07,0.06-1,0.1-2A33.87,33.87,0,0,1,133.7,156a31.09,31.09,0,0,1-3.65,1.15c-0.48.12-.91,0.21-1.21,0.26Z" fill="#7ec1ba"/>
                    <path d="M124.81,164.85s0.36,0.6.77,1.52a31.51,31.51,0,0,1,1.39,3.58,33.61,33.61,0,0,1,.9,3.83c0.2,1.1.25,1.82,0.25,1.82s0.16-.12.43-0.34l1.07-1a27.68,27.68,0,0,0,3-3.2c0.48-.64,1-1.27,1.4-1.88l1.07-1.75a11.5,11.5,0,0,0,.68-1.28l0.24-.5s-0.74.1-1.82,0.17a29.41,29.41,0,0,1-4,0,25.37,25.37,0,0,1-3.78-.56C125.45,165,124.81,164.85,124.81,164.85Z" fill="#7ec1ba"/>
                    <path d="M118.37,170s0,0.67,0,1.71a26.65,26.65,0,0,1-.31,3.8,25.87,25.87,0,0,1-.85,3.85c-0.31,1-.57,1.76-0.57,1.76l1.94-.5c0.58-.17,1.23-0.43,1.93-0.68a29.12,29.12,0,0,0,4.22-2c0.64-.4,1.25-0.74,1.73-1.09l1.6-1.19s-0.72-.24-1.73-0.65a26.46,26.46,0,0,1-3.54-1.73,27.07,27.07,0,0,1-3.16-2.13C118.87,170.43,118.37,170,118.37,170Z" fill="#7ec1ba"/>
                    <path d="M110.36,171.83s-0.25.61-.7,1.52a29.08,29.08,0,0,1-1.93,3.32,33.55,33.55,0,0,1-2.43,3.1c-0.37.42-.69,0.75-0.91,1l-0.36.35,0.53,0.13c0.34,0.07.84,0.14,1.43,0.23a26.44,26.44,0,0,0,8.74,0c0.59-.09,1.09-0.16,1.43-0.23l0.53-.13-0.36-.35c-0.22-.22-0.54-0.55-0.91-1a33.55,33.55,0,0,1-2.43-3.1,29.08,29.08,0,0,1-1.93-3.32C110.61,172.44,110.36,171.83,110.36,171.83Z" fill="#7ec1ba"/>
                    <path d="M102.34,170s-0.5.45-1.31,1.1a27.07,27.07,0,0,1-3.16,2.13,26.45,26.45,0,0,1-3.54,1.73c-1,.41-1.73.65-1.73,0.65l1.6,1.19c0.48,0.35,1.1.69,1.73,1.09a29.12,29.12,0,0,0,4.22,2c0.71,0.25,1.36.51,1.93,0.68l1.94,0.5s-0.26-.71-0.57-1.76a25.87,25.87,0,0,1-.85-3.85,26.65,26.65,0,0,1-.31-3.8C102.29,170.65,102.34,170,102.34,170Z" fill="#7ec1ba"/>
                    <path d="M95.9,164.85s-0.64.19-1.64,0.41a25.37,25.37,0,0,1-3.78.56,29.41,29.41,0,0,1-4,0c-1.08-.07-1.82-0.17-1.82-0.17l0.24,0.5a11.5,11.5,0,0,0,.68,1.28l1.07,1.75c0.43,0.61.92,1.25,1.4,1.88a27.68,27.68,0,0,0,3,3.2l1.07,1c0.27,0.22.43,0.34,0.43,0.34s0.05-.72.25-1.82a33.62,33.62,0,0,1,.9-3.83,31.51,31.51,0,0,1,1.39-3.58C95.54,165.46,95.9,164.85,95.9,164.85Z" fill="#7ec1ba"/>
                    <path d="M92.33,157.45l-0.47-.08c-0.3-.05-0.72-0.14-1.21-0.26A31.09,31.09,0,0,1,87,156a33.87,33.87,0,0,1-5.16-2.63l0.1,2,0.06,1,0.16,1.07a20.91,20.91,0,0,0,.42,2.31c0.2,0.77.39,1.55,0.6,2.27l0.7,1.93a11.64,11.64,0,0,0,.57,1.33l0.24,0.5s0.38-.64,1-1.53a28.94,28.94,0,0,1,2.49-3.07A24.78,24.78,0,0,1,91,158.47C91.79,157.83,92.33,157.45,92.33,157.45Z" fill="#7ec1ba"/>
                    <path d="M92.33,149.21s-0.55-.38-1.35-1a24.78,24.78,0,0,1-2.79-2.61,28.94,28.94,0,0,1-2.49-3.07c-0.61-.89-1-1.53-1-1.53l-0.24.5a11.64,11.64,0,0,0-.57,1.33l-0.7,1.93c-0.22.72-.4,1.5-0.6,2.27a20.91,20.91,0,0,0-.42,2.31L82,150.38l-0.06,1-0.1,2A33.87,33.87,0,0,1,87,150.7a31.09,31.09,0,0,1,3.65-1.15c0.48-.12.91-0.21,1.21-0.26Z" fill="#7ec1ba"/>
                    <path d="M95.9,141.81s-0.36-.6-0.77-1.52a31.51,31.51,0,0,1-1.39-3.58,33.62,33.62,0,0,1-.9-3.83c-0.2-1.1-.25-1.82-0.25-1.82s-0.16.12-.43,0.34l-1.07,1a27.68,27.68,0,0,0-3,3.2c-0.48.64-1,1.27-1.4,1.88l-1.07,1.75a11.5,11.5,0,0,0-.68,1.28l-0.24.5s0.74-.1,1.82-0.17a29.41,29.41,0,0,1,4,0,25.37,25.37,0,0,1,3.78.56C95.26,141.62,95.9,141.81,95.9,141.81Z" fill="#7ec1ba"/>
                    <path d="M102.34,136.68s0-.67,0-1.71a26.65,26.65,0,0,1,.31-3.8,25.87,25.87,0,0,1,.85-3.85c0.31-1,.57-1.76.57-1.76l-1.94.5c-0.58.17-1.23,0.43-1.93,0.68a29.12,29.12,0,0,0-4.22,2c-0.64.4-1.25,0.74-1.73,1.09l-1.6,1.19s0.72,0.24,1.73.65a26.45,26.45,0,0,1,3.54,1.73,27.07,27.07,0,0,1,3.16,2.13C101.85,136.23,102.34,136.68,102.34,136.68Z" fill="#7ec1ba"/>
                    <path d="M110.36,134.83s0.25-.61.7-1.52A29.08,29.08,0,0,1,113,130a33.55,33.55,0,0,1,2.43-3.1c0.37-.42.69-0.75,0.91-1l0.36-.35-0.53-.13c-0.34-.07-0.84-0.14-1.43-0.23a26.44,26.44,0,0,0-8.74,0c-0.59.09-1.09,0.16-1.43,0.23l-0.53.13,0.36,0.35c0.22,0.22.54,0.55,0.91,1a33.55,33.55,0,0,1,2.43,3.1,29.08,29.08,0,0,1,1.93,3.32C110.11,134.22,110.36,134.83,110.36,134.83Z" fill="#7ec1ba"/>
                    <path d="M118.37,136.68s0.5-.45,1.31-1.1a27.07,27.07,0,0,1,3.16-2.13,26.45,26.45,0,0,1,3.54-1.73c1-.41,1.73-0.65,1.73-0.65l-1.6-1.19c-0.48-.35-1.1-0.69-1.73-1.09a29.12,29.12,0,0,0-4.22-2c-0.71-.25-1.36-0.51-1.93-0.68l-1.94-.5s0.26,0.71.57,1.76a25.87,25.87,0,0,1,.85,3.85,26.65,26.65,0,0,1,.31,3.8C118.42,136,118.37,136.68,118.37,136.68Z" fill="#7ec1ba"/>
                    <path d="M124.81,141.81s0.64-.19,1.64-0.41a25.37,25.37,0,0,1,3.78-.56,29.41,29.41,0,0,1,4,0c1.08,0.07,1.82.17,1.82,0.17l-0.24-.5a11.5,11.5,0,0,0-.68-1.28L134,137.45c-0.43-.61-0.92-1.25-1.4-1.88a27.68,27.68,0,0,0-3-3.2l-1.07-1c-0.27-.22-0.43-0.34-0.43-0.34s-0.05.72-.25,1.82a33.61,33.61,0,0,1-.9,3.83,31.51,31.51,0,0,1-1.39,3.58C125.17,141.2,124.81,141.81,124.81,141.81Z" fill="#7ec1ba"/>
                    <path d="M128.38,149.21l0.47,0.08c0.3,0.05.72,0.14,1.21,0.26a31.09,31.09,0,0,1,3.65,1.15,33.87,33.87,0,0,1,5.16,2.63l-0.1-2-0.06-1-0.16-1.07a20.9,20.9,0,0,0-.42-2.31c-0.2-.77-0.39-1.55-0.6-2.27l-0.7-1.93a11.64,11.64,0,0,0-.57-1.33L136,141s-0.38.64-1,1.53a28.94,28.94,0,0,1-2.49,3.07,24.78,24.78,0,0,1-2.79,2.61C128.92,148.83,128.38,149.21,128.38,149.21Z" fill="#7ec1ba"/>
                  </g>
                </g>
              </g>
              <circle id="pupil-2" data-name="pupil" cx="110.36" cy="153.33" r="18" fill="#1e2223" opacity="0.3" style="mix-blend-mode: multiply"/>
              <path id="reflect-light-2" data-name="reflect-light" d="M73,164.55c5.23-9.87,18.2-21.91,33.86-22.82" fill="none" stroke-linecap="round" stroke-miterlimit="10" stroke-width="10" opacity="0.7" stroke="url(#linear-gradient-4)"/>
            </g>
          </g>
          <g id="eyebrow-2" data-name="eyebrow">
            <path d="M71.25,135.68a50,50,0,0,1,75.6,0" fill="none" stroke="#916964" stroke-linecap="round" stroke-miterlimit="10" stroke-width="6"/>
          </g>
        </g>
      </g>
      <path id="mouth" d="M197.13,231.62a30.15,30.15,0,0,1-60-.89A112.51,112.51,0,0,0,168.75,235,115.19,115.19,0,0,0,197.13,231.62Z" fill="url(#radial-gradient-4)"/>
      <g id="nose">
        <path d="M168.9,172c2.53-6.06,14.65-2.27,11.87,4.8-3.65,9.3-9.09,26.27-20,34.86s-19.35,5.84-23,2.78c-4.8-4-4.29-11.87,3.79-16.17S164.29,183.09,168.9,172Z" fill="url(#New_Gradient_Swatch)"/>
      </g>
      <g id="glasses">
        <line x1="25.78" y1="164.52" x2="314.59" y2="164.52" fill="none" stroke="#5d5a62" stroke-linecap="round" stroke-miterlimit="10" stroke-width="6"/>
        <path d="M73.2,164.62h72.18c0,17.18-16.16,31.11-36.09,31.11S73.2,181.8,73.2,164.62Z" fill="#fff" fill-opacity="0.5" stroke="#5d5a62" stroke-miterlimit="10" stroke-width="6"/>
        <path d="M194.79,164.62H267c0,17.18-16.16,31.11-36.09,31.11S194.79,181.8,194.79,164.62Z" fill="#fff" fill-opacity="0.5" stroke="#5d5a62" stroke-miterlimit="10" stroke-width="6"/>
      </g>
    </g>
  </g>
</svg>
